<svg width="626" height="613" viewBox="0 0 626 613" fill="none" xmlns="http://www.w3.org/2000/svg">
<path d="M316.38 447.968L394.267 491.822C395.169 492.325 396.621 492.325 397.523 491.822L535.393 413.873C536.294 413.37 536.294 412.537 535.393 412.034L457.506 368.18C456.604 367.677 455.152 367.677 454.251 368.18L316.38 446.129C315.491 446.632 315.491 447.453 316.38 447.968Z" fill="#E0E0E0"/>
<path d="M554.336 470.735C554.085 468.786 551.694 467.793 550.379 467.045L497.194 436.885C494.84 435.561 491.936 435.5 489.582 436.836L436.41 466.873C434.845 467.756 432.278 469.448 432.278 471.434C432.278 473.42 433.68 473.849 436.259 475.308C438.839 476.767 489.056 505.173 489.056 505.173C491.748 506.694 495.066 506.694 497.758 505.173L552.232 474.609C554.022 473.42 554.498 471.998 554.336 470.735Z" fill="#E0E0E0"/>
<path d="M372.758 316.173L385.303 309.075C386.805 308.229 389.222 308.229 390.724 309.075L469.387 353.542" stroke="#27DEBF" stroke-miterlimit="10"/>
<path d="M367.675 313.304L385.303 303.337C386.805 302.491 389.222 302.491 390.724 303.337L474.47 350.685" stroke="#27DEBF" stroke-miterlimit="10"/>
<path d="M479.554 347.804L390.724 297.587C389.222 296.741 386.805 296.741 385.303 297.587L362.579 310.423" stroke="#27DEBF" stroke-miterlimit="10"/>
<path d="M484.637 344.935L390.724 291.837C389.222 290.991 386.805 290.991 385.303 291.837L357.484 307.554" stroke="#27DEBF" stroke-miterlimit="10"/>
<path d="M293.744 56.0895L212.702 101.905C211.2 102.751 209.998 104.811 209.998 106.503V324.645C209.998 326.337 211.212 328.396 212.702 329.242L293.744 375.058C295.247 375.904 297.663 375.904 299.165 375.058L380.195 329.242C381.697 328.396 382.912 326.337 382.912 324.645V106.503C382.912 104.811 381.697 102.751 380.195 101.905L299.165 56.0895C297.663 55.2435 295.234 55.2435 293.744 56.0895Z" fill="#37474F"/>
<path d="M382.912 106.49V324.633C382.912 326.324 381.697 328.384 380.207 329.23L299.165 375.046C298.427 375.475 297.438 375.683 296.461 375.683V151.411C297.438 151.411 298.414 151.19 299.165 150.773L380.207 104.958L380.946 104.357L381.91 103.572C382.524 104.48 382.912 105.534 382.912 106.49Z" fill="#263238"/>
<path d="M222.881 127.97L283.578 162.286C285.08 163.132 286.282 165.191 286.282 166.883V189.503C286.282 191.195 285.068 191.881 283.565 191.035L222.869 156.72C221.366 155.874 220.152 153.814 220.152 152.122V129.502C220.164 127.81 221.379 127.124 222.881 127.97Z" fill="#455A64"/>
<path d="M225.247 137.937C225.247 139.531 226.462 141.493 227.952 142.351L278.47 170.917C279.972 171.763 281.187 171.162 281.187 169.568C281.187 167.974 279.972 166.013 278.47 165.154L227.952 136.589C226.462 135.743 225.247 136.343 225.247 137.937Z" fill="#27DEBF"/>
<path d="M225.247 149.437C225.247 151.031 226.462 152.993 227.952 153.851L278.47 182.417C279.972 183.262 281.187 182.662 281.187 181.068C281.187 179.474 279.972 177.513 278.47 176.654L227.952 148.089C226.462 147.243 225.247 147.843 225.247 149.437Z" fill="#263238"/>
<path d="M227.964 148.089L255.771 163.806V169.556L227.964 153.838C226.462 152.993 225.247 151.019 225.247 149.425C225.247 147.843 226.462 147.243 227.964 148.089Z" fill="#27DEBF"/>
<path d="M222.881 168.219L283.578 202.535C285.08 203.381 286.282 205.441 286.282 207.133V229.752C286.282 231.444 285.068 232.131 283.565 231.285L222.869 196.969C221.366 196.123 220.152 194.064 220.152 192.372V169.752C220.164 168.06 221.379 167.374 222.881 168.219Z" fill="#455A64"/>
<path d="M225.247 178.187C225.247 179.781 226.462 181.742 227.952 182.6L278.47 211.166C279.972 212.012 281.187 211.411 281.187 209.818C281.187 208.224 279.972 206.262 278.47 205.404L227.952 176.838C226.462 176.005 225.247 176.605 225.247 178.187Z" fill="#27DEBF"/>
<path d="M225.247 189.687C225.247 191.281 226.462 193.242 227.952 194.1L278.47 222.666C279.972 223.512 281.187 222.911 281.187 221.318C281.187 219.724 279.972 217.762 278.47 216.904L227.952 188.338C226.462 187.504 225.247 188.105 225.247 189.687Z" fill="#263238"/>
<path d="M227.964 188.35L271.02 212.699V218.449L227.964 194.1C226.462 193.254 225.247 191.281 225.247 189.687C225.247 188.093 226.462 187.504 227.964 188.35Z" fill="#27DEBF"/>
<path d="M222.881 208.469L283.578 242.785C285.08 243.631 286.282 245.69 286.282 247.382V270.002C286.282 271.694 285.068 272.38 283.565 271.534L222.869 237.219C221.366 236.373 220.152 234.313 220.152 232.621V210.002C220.164 208.31 221.379 207.623 222.881 208.469Z" fill="#455A64"/>
<path d="M225.247 218.436C225.247 220.03 226.462 221.992 227.952 222.85L278.47 251.416C279.972 252.262 281.187 251.661 281.187 250.067C281.187 248.473 279.972 246.512 278.47 245.654L227.952 217.088C226.462 216.254 225.247 216.855 225.247 218.436Z" fill="#27DEBF"/>
<path d="M225.247 229.949C225.247 231.542 226.462 233.504 227.952 234.362L278.47 262.928C279.972 263.774 281.187 263.173 281.187 261.579C281.187 259.986 279.972 258.024 278.47 257.166L227.952 228.6C226.462 227.754 225.247 228.355 225.247 229.949Z" fill="#263238"/>
<path d="M227.964 228.6L245.592 238.567V244.317L227.964 234.35C226.462 233.504 225.247 231.53 225.247 229.936C225.247 228.342 226.462 227.754 227.964 228.6Z" fill="#27DEBF"/>
<path d="M222.881 248.731L283.578 283.047C285.08 283.893 286.282 285.952 286.282 287.644V310.264C286.282 311.956 285.068 312.642 283.565 311.796L222.869 277.481C221.366 276.635 220.152 274.575 220.152 272.883V250.263C220.164 248.571 221.379 247.885 222.881 248.731Z" fill="#455A64"/>
<path d="M225.247 258.698C225.247 260.292 226.462 262.254 227.952 263.112L278.47 291.678C279.972 292.524 281.187 291.923 281.187 290.329C281.187 288.735 279.972 286.774 278.47 285.915L227.952 257.35C226.462 256.504 225.247 257.104 225.247 258.698Z" fill="#27DEBF"/>
<path d="M225.247 270.198C225.247 271.792 226.462 273.754 227.952 274.612L278.47 303.178C279.972 304.023 281.187 303.423 281.187 301.829C281.187 300.235 279.972 298.274 278.47 297.415L227.952 268.85C226.462 268.004 225.247 268.604 225.247 270.198Z" fill="#263238"/>
<path d="M227.964 268.849L255.771 284.567V290.317L227.964 274.599C226.462 273.753 225.247 271.78 225.247 270.186C225.247 268.592 226.462 268.004 227.964 268.849Z" fill="#27DEBF"/>
<path d="M222.881 288.98L283.578 323.296C285.08 324.142 286.282 326.202 286.282 327.894V350.513C286.282 352.205 285.068 352.892 283.565 352.046L222.869 317.73C221.366 316.884 220.152 314.825 220.152 313.133V290.513C220.164 288.821 221.379 288.134 222.881 288.98Z" fill="#455A64"/>
<path d="M225.247 298.948C225.247 300.542 226.462 302.503 227.952 303.361L278.47 331.927C279.972 332.773 281.187 332.172 281.187 330.579C281.187 328.985 279.972 327.023 278.47 326.165L227.952 297.599C226.462 296.753 225.247 297.366 225.247 298.948Z" fill="#27DEBF"/>
<path d="M225.247 310.448C225.247 312.042 226.462 314.003 227.952 314.861L278.47 343.427C279.972 344.273 281.187 343.672 281.187 342.078C281.187 340.485 279.972 338.523 278.47 337.665L227.952 309.099C226.462 308.265 225.247 308.866 225.247 310.448Z" fill="#263238"/>
<path d="M227.964 309.111L265.937 330.579V336.329L227.964 314.861C226.462 314.015 225.247 312.041 225.247 310.448C225.247 308.854 226.462 308.265 227.964 309.111Z" fill="#27DEBF"/>
<path d="M309.169 165.265C311.973 163.671 314.252 165.118 314.252 168.514V300.027C314.252 303.41 311.973 307.444 309.169 309.038C306.364 310.632 304.086 309.185 304.086 305.789V174.276C304.086 170.892 306.364 166.859 309.169 165.265Z" fill="#37474F"/>
<path d="M309.169 306.12C310.571 305.323 311.71 303.312 311.71 301.62V169.74C311.71 168.048 310.571 167.312 309.169 168.109C307.767 168.906 306.627 170.917 306.627 172.609V304.489C306.627 306.193 307.767 306.917 309.169 306.12Z" fill="#263238"/>
<path d="M309.169 306.12C310.571 305.323 311.71 303.312 311.71 301.62V238.567L306.627 241.448V304.502C306.627 306.193 307.767 306.917 309.169 306.12Z" fill="#27DEBF"/>
<path d="M324.418 156.634C327.223 155.04 329.501 156.487 329.501 159.883V291.396C329.501 294.779 327.223 298.813 324.418 300.419C321.614 302.013 319.335 300.566 319.335 297.17V165.657C319.335 162.273 321.614 158.228 324.418 156.634Z" fill="#37474F"/>
<path d="M324.431 297.501C325.833 296.704 326.972 294.694 326.972 293.002V161.121C326.972 159.429 325.833 158.693 324.431 159.49C323.029 160.287 321.889 162.298 321.889 163.99V295.871C321.877 297.562 323.016 298.298 324.431 297.501Z" fill="#27DEBF"/>
<path d="M339.68 148.015C342.485 146.421 344.763 147.868 344.763 151.264V282.777C344.763 286.161 342.485 290.194 339.68 291.788C336.876 293.382 334.597 291.935 334.597 288.539V157.026C334.597 153.642 336.876 149.609 339.68 148.015Z" fill="#37474F"/>
<path d="M339.68 288.87C341.082 288.073 342.222 286.063 342.222 284.371V152.49C342.222 150.798 341.082 150.062 339.68 150.859C338.278 151.656 337.139 153.667 337.139 155.359V287.24C337.139 288.944 338.278 289.667 339.68 288.87Z" fill="#263238"/>
<path d="M339.68 288.87C341.082 288.073 342.222 286.063 342.222 284.371V182.502L337.139 185.383V287.252C337.139 288.944 338.278 289.667 339.68 288.87Z" fill="#27DEBF"/>
<path d="M354.942 139.384C357.746 137.79 360.025 139.237 360.025 142.633V274.146C360.025 277.53 357.746 281.563 354.942 283.157C352.138 284.751 349.859 283.304 349.859 279.908V148.395C349.859 145.011 352.125 140.978 354.942 139.384Z" fill="#37474F"/>
<path d="M354.942 280.251C356.344 279.454 357.484 277.444 357.484 275.752V143.871C357.484 142.179 356.344 141.456 354.942 142.241C353.54 143.037 352.4 145.048 352.4 146.74V278.621C352.4 280.313 353.54 281.048 354.942 280.251Z" fill="#263238"/>
<path d="M354.942 280.251C356.344 279.454 357.484 277.444 357.484 275.752V253.488L352.4 256.369V278.633C352.4 280.313 353.54 281.048 354.942 280.251Z" fill="#27DEBF"/>
<path d="M370.191 130.765C372.996 129.171 375.274 130.618 375.274 134.014V265.527C375.274 268.911 372.996 272.944 370.191 274.538C367.387 276.132 365.108 274.685 365.108 271.289V139.776C365.108 136.392 367.387 132.359 370.191 130.765Z" fill="#37474F"/>
<path d="M370.191 271.62C371.594 270.823 372.733 268.813 372.733 267.121V135.24C372.733 133.548 371.594 132.813 370.191 133.609C368.789 134.406 367.65 136.417 367.65 138.109V269.99C367.65 271.694 368.789 272.417 370.191 271.62Z" fill="#263238"/>
<path d="M370.191 271.62C371.594 270.823 372.733 268.813 372.733 267.121V198.318L367.65 201.199V270.002C367.65 271.694 368.789 272.417 370.191 271.62Z" fill="#27DEBF"/>
<path d="M306.252 325.037L373.109 287.24C374.31 286.565 375.274 287.117 375.274 288.466V312.311C375.274 313.66 374.298 315.315 373.109 315.989L306.252 353.787C305.05 354.461 304.086 353.909 304.086 352.561V328.715C304.086 327.366 305.05 325.711 306.252 325.037Z" fill="#37474F"/>
<path d="M308.994 332.111C308.994 333.705 310.208 334.306 311.71 333.46L367.65 301.817C369.152 300.971 370.367 298.997 370.367 297.403C370.367 295.809 369.152 295.209 367.662 296.054L311.723 327.698C310.208 328.543 308.994 330.517 308.994 332.111Z" fill="#263238"/>
<path d="M308.994 332.111C308.994 333.705 310.208 334.306 311.71 333.447L352.4 310.435V304.685L311.71 327.698C310.208 328.543 308.994 330.517 308.994 332.111Z" fill="#27DEBF"/>
<path d="M308.994 343.611C308.994 345.205 310.208 345.806 311.71 344.96L367.65 313.317C369.152 312.471 370.367 310.497 370.367 308.903C370.367 307.309 369.152 306.708 367.662 307.554L311.723 339.197C310.208 340.043 308.994 342.017 308.994 343.611Z" fill="#263238"/>
<path d="M308.994 343.611C308.994 345.205 310.208 345.806 311.71 344.96L326.972 336.329V330.579L311.71 339.21C310.208 340.043 308.994 342.017 308.994 343.611Z" fill="#27DEBF"/>
<path d="M380.195 101.905L299.165 56.0895C297.663 55.2435 295.247 55.2435 293.744 56.0895L212.715 101.905C211.212 102.751 211.212 104.124 212.715 104.97L293.757 150.786C295.259 151.632 297.676 151.632 299.178 150.786L380.207 104.97C381.697 104.124 381.697 102.751 380.195 101.905Z" fill="#455A64"/>
<path d="M294.821 139.887L231.958 104.345C231.057 103.842 230.33 102.604 230.33 101.586V99.5144C230.33 98.4968 231.057 97.2585 231.958 96.7559L294.821 61.2142C295.722 60.7115 297.175 60.7115 298.076 61.2142L360.939 96.7559C361.841 97.2585 362.567 98.4968 362.567 99.5144V101.586C362.567 102.604 361.841 103.842 360.939 104.345L298.076 139.887C297.187 140.401 295.722 140.401 294.821 139.887Z" fill="#263238"/>
<path d="M231.971 98.5949L294.834 134.137C295.735 134.639 297.187 134.639 298.089 134.137L360.952 98.5949C361.853 98.0922 361.853 97.2586 360.952 96.7559L298.089 62.4402C297.187 61.9375 295.735 61.9375 294.834 62.4402L231.971 96.7559C231.069 97.2708 231.069 98.0922 231.971 98.5949Z" fill="#455A64"/>
<path d="M296.461 134.517V140.267C295.873 140.267 295.284 140.144 294.833 139.887L231.971 104.345C231.069 103.842 230.343 102.604 230.343 101.586V99.5144C230.343 98.6194 230.906 97.5528 231.67 96.9643C231.082 97.467 231.182 98.1535 231.971 98.5949L294.833 134.137C295.284 134.394 295.873 134.517 296.461 134.517Z" fill="#37474F"/>
<path d="M294.821 122.637L252.303 98.5949C251.402 98.0922 250.675 96.8539 250.675 95.8364V93.7644C250.675 92.7469 251.402 91.5086 252.303 91.0059L279.559 75.5951C280.461 75.0925 281.687 74.0136 282.301 73.2044L295.322 56.0282C295.935 55.2067 297.175 54.9615 298.064 55.4765L340.582 79.5183C341.483 80.021 342.209 81.2592 342.209 82.2768V95.8486C342.209 96.8662 341.483 98.1045 340.582 98.6071L298.064 122.649C297.187 123.152 295.722 123.152 294.821 122.637Z" fill="#263238"/>
<path d="M298.076 116.887L325.332 101.476C325.77 101.231 326.271 100.851 326.759 100.446C327.273 100.005 327.761 99.5021 328.087 99.0853L341.107 81.909C341.721 81.0876 341.496 80.021 340.607 79.5183L298.089 55.4765C297.187 54.9738 295.96 55.219 295.347 56.0282L282.326 73.2044C281.713 74.0259 280.698 75.1906 279.809 75.6932L252.328 91.006C251.427 91.5086 251.427 92.3423 252.328 92.845L294.846 116.887C295.722 117.402 297.187 117.402 298.076 116.887Z" fill="#455A64"/>
<path d="M340.594 79.5061L298.076 55.4642C297.175 54.9616 295.948 55.2067 295.334 56.0159L282.313 73.1922C281.988 73.6213 281.5 74.0994 280.986 74.553C280.986 74.553 326.747 100.446 326.759 100.434C327.273 99.9925 327.761 99.5021 328.087 99.073L341.107 81.8968C341.721 81.0876 341.496 80.021 340.594 79.5061Z" fill="#37474F"/>
<path d="M262.62 91.4351C263.671 90.8343 265.386 90.8343 266.438 91.4351C267.49 92.0358 267.49 92.9921 266.438 93.5928C265.386 94.1936 263.671 94.1936 262.62 93.5928C261.568 92.9921 261.568 92.0235 262.62 91.4351Z" fill="#27DEBF"/>
<path d="M270.257 95.7506C271.308 95.1499 273.024 95.1499 274.075 95.7506C275.127 96.3513 275.127 97.3076 274.075 97.9084C273.024 98.5091 271.308 98.5091 270.257 97.9084C269.205 97.3076 269.205 96.3391 270.257 95.7506Z" fill="#27DEBF"/>
<path d="M277.881 100.054C278.933 99.4531 280.648 99.4531 281.7 100.054C282.752 100.655 282.752 101.611 281.7 102.212C280.648 102.812 278.933 102.812 277.881 102.212C276.83 101.623 276.83 100.655 277.881 100.054Z" fill="#263238"/>
<path d="M285.506 104.369C286.558 103.769 288.273 103.769 289.325 104.369C290.376 104.97 290.376 105.926 289.325 106.527C288.273 107.128 286.558 107.128 285.506 106.527C284.454 105.926 284.454 104.97 285.506 104.369Z" fill="#263238"/>
<path d="M270.257 90.7976C271.743 90.7976 272.949 90.1169 272.949 89.2773C272.949 88.4377 271.743 87.7571 270.257 87.7571C268.77 87.7571 267.565 88.4377 267.565 89.2773C267.565 90.1169 268.77 90.7976 270.257 90.7976Z" fill="#27DEBF"/>
<path d="M275.978 92.514C277.03 91.9132 278.745 91.9132 279.797 92.514C280.849 93.1147 280.849 94.071 279.797 94.6717C278.745 95.2725 277.03 95.2725 275.978 94.6717C274.914 94.071 274.914 93.1024 275.978 92.514Z" fill="#263238"/>
<path d="M285.506 99.4286C286.993 99.4286 288.198 98.748 288.198 97.9084C288.198 97.0688 286.993 96.3881 285.506 96.3881C284.019 96.3881 282.814 97.0688 282.814 97.9084C282.814 98.748 284.019 99.4286 285.506 99.4286Z" fill="#27DEBF"/>
<path d="M291.228 101.133C292.279 100.532 293.995 100.532 295.046 101.133C296.098 101.733 296.098 102.69 295.046 103.291C293.995 103.891 292.279 103.891 291.228 103.291C290.176 102.702 290.176 101.733 291.228 101.133Z" fill="#263238"/>
<path d="M274.063 84.9618C275.114 84.361 276.83 84.361 277.881 84.9618C278.933 85.5625 278.933 86.5188 277.881 87.1195C276.83 87.7203 275.114 87.7203 274.063 87.1195C273.011 86.5188 273.011 85.5625 274.063 84.9618Z" fill="#263238"/>
<path d="M281.7 89.2773C282.752 88.6766 284.467 88.6766 285.519 89.2773C286.57 89.8781 286.57 90.8344 285.519 91.4351C284.467 92.0358 282.752 92.0358 281.7 91.4351C280.636 90.8344 280.636 89.8781 281.7 89.2773Z" fill="#27DEBF"/>
<path d="M289.325 93.5928C290.376 92.9921 292.092 92.9921 293.143 93.5928C294.195 94.1936 294.195 95.1498 293.143 95.7506C292.092 96.3513 290.376 96.3513 289.325 95.7506C288.273 95.1498 288.273 94.1813 289.325 93.5928Z" fill="#263238"/>
<path d="M293.181 108.599C294.233 107.998 295.948 107.998 296.999 108.599C298.051 109.2 298.051 110.156 296.999 110.757C295.948 111.358 294.233 111.358 293.181 110.757C292.129 110.156 292.129 109.188 293.181 108.599Z" fill="#27DEBF"/>
<path d="M300.806 107.962C302.292 107.962 303.497 107.281 303.497 106.441C303.497 105.602 302.292 104.921 300.806 104.921C299.319 104.921 298.114 105.602 298.114 106.441C298.114 107.281 299.319 107.962 300.806 107.962Z" fill="#263238"/>
<path d="M296.949 97.9084C298.001 97.3076 299.716 97.3076 300.768 97.9084C301.82 98.5091 301.82 99.4654 300.768 100.066C299.716 100.667 298.001 100.667 296.949 100.066C295.898 99.4654 295.898 98.4969 296.949 97.9084Z" fill="#263238"/>
<path d="M279.784 81.7374C280.836 81.1367 282.551 81.1367 283.603 81.7374C284.655 82.3382 284.655 83.2944 283.603 83.8952C282.551 84.4959 280.836 84.4959 279.784 83.8952C278.733 83.2944 278.733 82.3259 279.784 81.7374Z" fill="#27DEBF"/>
<path d="M289.325 88.6398C290.811 88.6398 292.016 87.9591 292.016 87.1195C292.016 86.2799 290.811 85.5993 289.325 85.5993C287.838 85.5993 286.633 86.2799 286.633 87.1195C286.633 87.9591 287.838 88.6398 289.325 88.6398Z" fill="#263238"/>
<path d="M295.046 90.3562C296.098 89.7555 297.813 89.7555 298.865 90.3562C299.917 90.9569 299.917 91.9132 298.865 92.514C297.813 93.1147 296.098 93.1147 295.046 92.514C293.995 91.9132 293.995 90.9569 295.046 90.3562Z" fill="#27DEBF"/>
<path d="M304.574 97.2708C306.061 97.2708 307.266 96.5902 307.266 95.7506C307.266 94.911 306.061 94.2303 304.574 94.2303C303.087 94.2303 301.882 94.911 301.882 95.7506C301.882 96.5902 303.087 97.2708 304.574 97.2708Z" fill="#263238"/>
<path d="M304.624 102.138C305.676 101.537 307.391 101.537 308.443 102.138C309.494 102.739 309.494 103.695 308.443 104.296C307.391 104.897 305.676 104.897 304.624 104.296C303.572 103.695 303.572 102.727 304.624 102.138Z" fill="#27DEBF"/>
<path d="M310.346 98.9014C311.397 98.3007 313.113 98.3007 314.164 98.9014C315.216 99.5022 315.216 100.458 314.164 101.059C313.113 101.66 311.397 101.66 310.346 101.059C309.294 100.458 309.294 99.4899 310.346 98.9014Z" fill="#263238"/>
<path d="M296.549 117.267V123.005C295.935 123.017 295.309 122.906 294.833 122.637L252.316 98.5949C251.414 98.0922 250.688 96.854 250.688 95.8364V93.7644C250.688 92.8695 251.251 91.8028 252.015 91.2144C251.427 91.717 251.527 92.4036 252.316 92.8449L294.833 116.887C295.309 117.157 295.935 117.279 296.549 117.267Z" fill="#37474F"/>
<path d="M287.935 72.4811L287.973 72.432C288.386 71.8926 289.199 71.721 289.8 72.0642L326.797 92.9798C327.398 93.3231 327.548 94.0341 327.135 94.5736L327.098 94.6226C326.684 95.1621 325.858 95.3337 325.27 94.9904L288.273 74.0749C287.685 73.7439 287.522 73.0328 287.935 72.4811Z" fill="#263238"/>
<path d="M287.935 72.4811L287.973 72.432C288.386 71.8926 289.199 71.721 289.8 72.0642L317.307 87.6222L315.767 89.6328L288.273 74.0871C287.685 73.7439 287.522 73.0328 287.935 72.4811Z" fill="#27DEBF"/>
<path d="M291.002 68.4598L291.04 68.4108C291.453 67.8714 292.267 67.6997 292.868 68.043L329.864 88.9586C330.465 89.3018 330.616 90.0129 330.202 90.5524L330.165 90.6014C329.752 91.1408 328.925 91.3125 328.337 90.9692L291.34 70.0659C290.739 69.7226 290.589 69.0115 291.002 68.4598Z" fill="#263238"/>
<path d="M291.002 68.4598L291.04 68.4108C291.453 67.8714 292.267 67.6997 292.868 68.043L302.07 73.2412L300.53 75.2519L291.34 70.0536C290.739 69.7226 290.589 69.0115 291.002 68.4598Z" fill="#27DEBF"/>
<path d="M294.057 64.4508L294.095 64.4018C294.508 63.8623 295.322 63.6907 295.923 64.034L332.919 84.9495C333.52 85.2928 333.67 86.0039 333.257 86.5433L333.22 86.5924C332.807 87.1318 331.98 87.3034 331.392 86.9602L294.395 66.0446C293.794 65.7013 293.644 64.9902 294.057 64.4508Z" fill="#263238"/>
<path d="M294.057 64.4508L294.095 64.4017C294.508 63.8623 295.322 63.6907 295.923 64.0217L315.191 74.884L313.651 76.8947L294.383 66.0323C293.794 65.7013 293.644 64.9902 294.057 64.4508Z" fill="#27DEBF"/>
<path d="M297.112 60.4295L297.15 60.3805C297.563 59.841 298.377 59.6694 298.978 60.0127L335.987 80.916C336.588 81.2592 336.738 81.9703 336.325 82.5098L336.287 82.5588C335.874 83.0982 335.048 83.2699 334.459 82.9266L297.463 62.011C296.862 61.68 296.699 60.9689 297.112 60.4295Z" fill="#263238"/>
<path d="M297.112 60.4295L297.15 60.3805C297.563 59.841 298.377 59.6694 298.978 60.0127L332.569 79.0034L331.029 81.014L297.45 62.0356C296.862 61.68 296.699 60.9689 297.112 60.4295Z" fill="#27DEBF"/>
<path d="M230.343 396.697L242.888 389.598C244.378 388.752 246.819 388.752 248.309 389.598L322.828 431.736C324.669 432.778 326.96 431.478 326.96 429.394V369.038" stroke="#27DEBF" stroke-miterlimit="10"/>
<path d="M225.247 393.816L242.875 383.848C244.365 383.002 246.807 383.002 248.297 383.848L327.911 428.855C329.752 429.897 332.043 428.597 332.043 426.513V369.026" stroke="#27DEBF" stroke-miterlimit="10"/>
<path d="M220.164 390.935L242.888 378.098C244.378 377.252 246.819 377.252 248.309 378.098L333.007 425.986C334.847 427.028 337.139 425.728 337.139 423.644V369.382" stroke="#27DEBF" stroke-miterlimit="10"/>
<path d="M215.069 388.066L242.888 372.348C244.378 371.502 246.819 371.502 248.309 372.348L338.09 423.105C339.931 424.147 342.222 422.847 342.222 420.763V369.369" stroke="#27DEBF" stroke-miterlimit="10"/>
<path d="M146.259 139.457L65.2167 185.273C63.7143 186.119 62.4998 188.179 62.4998 189.871V408.013C62.4998 409.705 63.7143 411.764 65.2167 412.61L146.259 458.426C147.761 459.272 150.177 459.272 151.68 458.426L232.709 412.61C234.212 411.764 235.414 409.705 235.414 408.013V189.871C235.414 188.179 234.199 186.119 232.709 185.273L151.68 139.457C150.177 138.612 147.749 138.612 146.259 139.457Z" fill="#37474F"/>
<path d="M235.426 189.858V408.001C235.426 409.692 234.212 411.752 232.722 412.598L151.68 458.414C150.941 458.843 149.952 459.051 148.975 459.051V234.779C149.952 234.779 150.929 234.558 151.68 234.141L232.722 188.326L233.46 187.725L234.424 186.94C235.038 187.848 235.426 188.902 235.426 189.858Z" fill="#263238"/>
<path d="M75.3954 211.338L136.092 245.654C137.595 246.5 138.809 248.559 138.809 250.251V272.871C138.809 274.563 137.595 275.249 136.092 274.403L75.3954 240.088C73.893 239.242 72.6786 237.182 72.6786 235.49V212.87C72.6786 211.178 73.893 210.492 75.3954 211.338Z" fill="#455A64"/>
<path d="M77.7742 221.305C77.7742 222.899 78.9887 224.861 80.4911 225.719L131.009 254.285C132.512 255.131 133.726 254.53 133.726 252.936C133.726 251.342 132.512 249.381 131.009 248.522L80.4911 219.957C78.9762 219.111 77.7742 219.711 77.7742 221.305Z" fill="#27DEBF"/>
<path d="M77.7742 232.805C77.7742 234.399 78.9887 236.361 80.4911 237.219L131.009 265.784C132.512 266.63 133.726 266.03 133.726 264.436C133.726 262.842 132.512 260.88 131.009 260.022L80.4911 231.456C78.9762 230.611 77.7742 231.211 77.7742 232.805Z" fill="#263238"/>
<path d="M80.4785 231.456L108.285 247.174V252.924L80.4785 237.206C78.9761 236.36 77.7617 234.387 77.7617 232.793C77.7742 231.211 78.9761 230.611 80.4785 231.456Z" fill="#27DEBF"/>
<path d="M75.3954 251.587L136.092 285.903C137.595 286.749 138.809 288.809 138.809 290.501V313.12C138.809 314.812 137.595 315.499 136.092 314.653L75.3954 280.337C73.893 279.491 72.6786 277.432 72.6786 275.74V253.12C72.6786 251.428 73.893 250.741 75.3954 251.587Z" fill="#455A64"/>
<path d="M77.7742 261.555C77.7742 263.149 78.9887 265.11 80.4911 265.968L131.009 294.534C132.512 295.38 133.726 294.779 133.726 293.186C133.726 291.592 132.512 289.63 131.009 288.772L80.4911 260.206C78.9762 259.373 77.7742 259.973 77.7742 261.555Z" fill="#27DEBF"/>
<path d="M77.7742 273.055C77.7742 274.648 78.9887 276.61 80.4911 277.468L131.009 306.034C132.512 306.88 133.726 306.279 133.726 304.685C133.726 303.092 132.512 301.13 131.009 300.272L80.4911 271.706C78.9762 270.872 77.7742 271.473 77.7742 273.055Z" fill="#263238"/>
<path d="M80.4785 271.718L123.535 296.067V301.817L80.4785 277.468C78.9761 276.622 77.7617 274.648 77.7617 273.055C77.7742 271.473 78.9761 270.872 80.4785 271.718Z" fill="#27DEBF"/>
<path d="M75.3954 291.837L136.092 326.153C137.595 326.999 138.809 329.058 138.809 330.75V353.37C138.809 355.062 137.595 355.748 136.092 354.902L75.3954 320.599C73.893 319.753 72.6786 317.693 72.6786 316.001V293.382C72.6786 291.678 73.893 290.991 75.3954 291.837Z" fill="#455A64"/>
<path d="M77.7742 301.804C77.7742 303.398 78.9887 305.36 80.4911 306.218L131.009 334.784C132.512 335.63 133.726 335.029 133.726 333.435C133.726 331.841 132.512 329.88 131.009 329.022L80.4911 300.456C78.9762 299.622 77.7742 300.223 77.7742 301.804Z" fill="#27DEBF"/>
<path d="M77.7742 313.316C77.7742 314.91 78.9887 316.872 80.4911 317.73L131.009 346.296C132.512 347.142 133.726 346.541 133.726 344.947C133.726 343.353 132.512 341.392 131.009 340.534L80.4911 311.968C78.9762 311.122 77.7742 311.723 77.7742 313.316Z" fill="#263238"/>
<path d="M80.4785 311.968L98.1067 321.935V327.685L80.4785 317.718C78.9761 316.872 77.7617 314.898 77.7617 313.304C77.7742 311.723 78.9761 311.122 80.4785 311.968Z" fill="#27DEBF"/>
<path d="M75.3954 332.099L136.092 366.415C137.595 367.26 138.809 369.32 138.809 371.012V393.632C138.809 395.324 137.595 396.01 136.092 395.164L75.3954 360.848C73.893 360.003 72.6786 357.943 72.6786 356.251V333.631C72.6786 331.939 73.893 331.253 75.3954 332.099Z" fill="#455A64"/>
<path d="M77.7742 342.066C77.7742 343.66 78.9887 345.622 80.4911 346.48L131.009 375.046C132.512 375.892 133.726 375.291 133.726 373.697C133.726 372.103 132.512 370.142 131.009 369.283L80.4911 340.718C78.9762 339.872 77.7742 340.472 77.7742 342.066Z" fill="#27DEBF"/>
<path d="M77.7742 353.566C77.7742 355.16 78.9887 357.121 80.4911 357.98L131.009 386.545C132.512 387.391 133.726 386.791 133.726 385.197C133.726 383.603 132.512 381.641 131.009 380.783L80.4911 352.217C78.9762 351.372 77.7742 351.972 77.7742 353.566Z" fill="#263238"/>
<path d="M80.4785 352.218L108.285 367.935V373.685L80.4785 357.967C78.9761 357.122 77.7617 355.148 77.7617 353.554C77.7742 351.972 78.9761 351.372 80.4785 352.218Z" fill="#27DEBF"/>
<path d="M75.3954 372.348L136.092 406.664C137.595 407.51 138.809 409.57 138.809 411.262V433.881C138.809 435.573 137.595 436.26 136.092 435.414L75.3954 401.098C73.893 400.252 72.6786 398.192 72.6786 396.501V373.881C72.6786 372.189 73.893 371.502 75.3954 372.348Z" fill="#455A64"/>
<path d="M77.7742 382.316C77.7742 383.91 78.9887 385.871 80.4911 386.729L131.009 415.295C132.512 416.141 133.726 415.54 133.726 413.947C133.726 412.353 132.512 410.391 131.009 409.533L80.4911 380.967C78.9762 380.133 77.7742 380.734 77.7742 382.316Z" fill="#27DEBF"/>
<path d="M77.7742 393.816C77.7742 395.409 78.9887 397.371 80.4911 398.229L131.009 426.795C132.512 427.641 133.726 427.04 133.726 425.446C133.726 423.853 132.512 421.891 131.009 421.033L80.4911 392.467C78.9762 391.633 77.7742 392.234 77.7742 393.816Z" fill="#263238"/>
<path d="M80.4785 392.479L118.452 413.947V419.697L80.4785 398.229C78.9761 397.383 77.7617 395.409 77.7617 393.816C77.7742 392.234 78.9761 391.633 80.4785 392.479Z" fill="#27DEBF"/>
<path d="M161.683 248.633C164.488 247.039 166.766 248.486 166.766 251.882V383.395C166.766 386.778 164.488 390.812 161.683 392.406C158.879 394 156.6 392.553 156.6 389.157V257.644C156.6 254.26 158.879 250.227 161.683 248.633Z" fill="#37474F"/>
<path d="M161.683 389.488C163.086 388.691 164.225 386.68 164.225 384.988V253.108C164.225 251.416 163.086 250.68 161.683 251.477C160.281 252.274 159.142 254.285 159.142 255.976V387.857C159.142 389.561 160.281 390.285 161.683 389.488Z" fill="#263238"/>
<path d="M161.683 389.488C163.086 388.691 164.225 386.68 164.225 384.988V321.935L159.142 324.816V387.87C159.142 389.561 160.281 390.285 161.683 389.488Z" fill="#27DEBF"/>
<path d="M176.945 240.002C179.75 238.408 182.028 239.855 182.028 243.251V374.764C182.028 378.147 179.75 382.181 176.945 383.775C174.141 385.368 171.862 383.922 171.862 380.526V249.013C171.85 245.641 174.128 241.596 176.945 240.002Z" fill="#37474F"/>
<path d="M176.945 380.869C178.347 380.072 179.487 378.062 179.487 376.37V244.489C179.487 242.797 178.347 242.061 176.945 242.858C175.543 243.655 174.404 245.666 174.404 247.358V379.239C174.391 380.93 175.53 381.666 176.945 380.869Z" fill="#27DEBF"/>
<path d="M192.195 231.383C194.999 229.789 197.278 231.236 197.278 234.632V366.145C197.278 369.529 194.999 373.562 192.195 375.156C189.39 376.75 187.111 375.303 187.111 371.907V240.394C187.111 237.01 189.39 232.977 192.195 231.383Z" fill="#37474F"/>
<path d="M192.195 372.238C193.597 371.441 194.736 369.431 194.736 367.739V235.858C194.736 234.166 193.597 233.443 192.195 234.227C190.792 235.024 189.653 237.035 189.653 238.727V370.607C189.653 372.312 190.792 373.035 192.195 372.238Z" fill="#263238"/>
<path d="M192.195 372.238C193.597 371.441 194.736 369.431 194.736 367.739V265.87L189.653 268.751V370.62C189.653 372.312 190.792 373.035 192.195 372.238Z" fill="#27DEBF"/>
<path d="M207.456 222.752C210.261 221.158 212.54 222.605 212.54 226.001V357.514C212.54 360.898 210.261 364.931 207.456 366.537C204.652 368.131 202.373 366.684 202.373 363.288V231.775C202.373 228.379 204.639 224.346 207.456 222.752Z" fill="#37474F"/>
<path d="M207.456 363.619C208.859 362.822 209.998 360.812 209.998 359.12V227.239C209.998 225.547 208.859 224.812 207.456 225.608C206.054 226.405 204.915 228.416 204.915 230.108V361.989C204.915 363.681 206.054 364.416 207.456 363.619Z" fill="#263238"/>
<path d="M207.456 363.619C208.859 362.822 209.998 360.812 209.998 359.12V336.856L204.915 339.737V362.001C204.915 363.681 206.054 364.416 207.456 363.619Z" fill="#27DEBF"/>
<path d="M222.706 214.133C225.51 212.539 227.789 213.986 227.789 217.382V348.895C227.789 352.279 225.51 356.312 222.706 357.906C219.901 359.5 217.623 358.053 217.623 354.657V223.144C217.623 219.76 219.901 215.727 222.706 214.133Z" fill="#37474F"/>
<path d="M222.706 354.988C224.108 354.191 225.247 352.181 225.247 350.489V218.608C225.247 216.916 224.108 216.181 222.706 216.977C221.304 217.774 220.164 219.785 220.164 221.477V353.358C220.164 355.062 221.304 355.785 222.706 354.988Z" fill="#263238"/>
<path d="M222.706 354.988C224.108 354.191 225.247 352.181 225.247 350.489V281.686L220.164 284.567V353.37C220.164 355.062 221.304 355.785 222.706 354.988Z" fill="#27DEBF"/>
<path d="M158.766 408.405L225.623 370.607C226.825 369.933 227.789 370.485 227.789 371.833V395.679C227.789 397.028 226.812 398.683 225.623 399.357L158.766 437.155C157.564 437.829 156.6 437.277 156.6 435.929V412.083C156.6 410.734 157.564 409.079 158.766 408.405Z" fill="#37474F"/>
<path d="M161.508 415.479C161.508 417.073 162.722 417.674 164.225 416.828L220.164 385.185C221.667 384.339 222.881 382.365 222.881 380.771C222.881 379.177 221.667 378.576 220.177 379.422L164.237 411.065C162.722 411.911 161.508 413.885 161.508 415.479Z" fill="#263238"/>
<path d="M161.508 415.479C161.508 417.073 162.722 417.674 164.225 416.815L204.915 393.803V388.053L164.225 411.065C162.722 411.911 161.508 413.885 161.508 415.479Z" fill="#27DEBF"/>
<path d="M161.508 426.979C161.508 428.573 162.722 429.174 164.225 428.328L220.164 396.684C221.667 395.839 222.881 393.865 222.881 392.271C222.881 390.677 221.667 390.076 220.177 390.922L164.237 422.565C162.722 423.411 161.508 425.385 161.508 426.979Z" fill="#263238"/>
<path d="M161.508 426.979C161.508 428.573 162.722 429.174 164.225 428.328L179.487 419.697V413.947L164.225 422.578C162.722 423.411 161.508 425.385 161.508 426.979Z" fill="#27DEBF"/>
<path d="M232.709 185.273L151.68 139.457C150.177 138.612 147.761 138.612 146.259 139.457L65.2292 185.273C63.7268 186.119 63.7268 187.492 65.2292 188.338L146.271 234.154C147.774 235 150.19 235 151.692 234.154L232.722 188.338C234.212 187.492 234.212 186.119 232.709 185.273Z" fill="#455A64"/>
<path d="M147.335 223.255L84.4724 187.713C83.571 187.21 82.8448 185.972 82.8448 184.954V182.882C82.8448 181.865 83.571 180.627 84.4724 180.124L147.335 144.582C148.237 144.079 149.689 144.079 150.591 144.582L213.453 180.124C214.355 180.627 215.081 181.865 215.081 182.882V184.954C215.081 185.972 214.355 187.21 213.453 187.713L150.591 223.255C149.702 223.77 148.237 223.77 147.335 223.255Z" fill="#263238"/>
<path d="M84.485 181.975L147.348 217.517C148.249 218.02 149.702 218.02 150.603 217.517L213.466 181.975C214.367 181.472 214.367 180.639 213.466 180.136L150.603 145.82C149.702 145.318 148.249 145.318 147.348 145.82L84.485 180.136C83.5835 180.639 83.5835 181.46 84.485 181.975Z" fill="#455A64"/>
<path d="M148.975 217.885V223.635C148.387 223.635 147.799 223.512 147.348 223.255L84.485 187.713C83.5835 187.21 82.8574 185.972 82.8574 184.954V182.882C82.8574 181.987 83.4208 180.921 84.1845 180.332C83.596 180.835 83.6962 181.521 84.485 181.963L147.348 217.505C147.799 217.762 148.387 217.885 148.975 217.885Z" fill="#37474F"/>
<path d="M147.335 206.005L104.817 181.963C103.916 181.46 103.19 180.222 103.19 179.204V177.132C103.19 176.115 103.916 174.877 104.817 174.374L132.073 158.963C132.975 158.46 134.202 157.381 134.815 156.572L147.836 139.396C148.45 138.575 149.689 138.329 150.578 138.844L193.096 162.886C193.997 163.389 194.724 164.627 194.724 165.645V179.217C194.724 180.234 193.997 181.472 193.096 181.975L150.578 206.017C149.702 206.52 148.237 206.52 147.335 206.005Z" fill="#263238"/>
<path d="M150.591 200.255L177.847 184.844C178.285 184.599 178.786 184.219 179.274 183.814C179.787 183.373 180.275 182.87 180.601 182.453L193.622 165.277C194.235 164.456 194.01 163.389 193.121 162.886L150.603 138.844C149.702 138.342 148.475 138.587 147.861 139.396L134.84 156.572C134.227 157.394 133.213 158.559 132.324 159.061L104.842 174.374C103.941 174.877 103.941 175.71 104.842 176.213L147.36 200.255C148.237 200.77 149.702 200.77 150.591 200.255Z" fill="#455A64"/>
<path d="M193.108 162.874L150.591 138.832C149.689 138.33 148.462 138.575 147.849 139.384L134.828 156.56C134.502 156.989 134.014 157.467 133.501 157.921C133.501 157.921 179.261 183.814 179.274 183.802C179.787 183.361 180.275 182.87 180.601 182.441L193.622 165.265C194.235 164.456 194.01 163.389 193.108 162.874Z" fill="#37474F"/>
<path d="M115.134 174.803C116.186 174.202 117.901 174.202 118.953 174.803C120.004 175.404 120.004 176.36 118.953 176.961C117.901 177.562 116.186 177.562 115.134 176.961C114.082 176.36 114.082 175.392 115.134 174.803Z" fill="#27DEBF"/>
<path d="M122.771 179.119C123.823 178.518 125.538 178.518 126.59 179.119C127.641 179.719 127.641 180.676 126.59 181.276C125.538 181.877 123.823 181.877 122.771 181.276C121.719 180.676 121.719 179.707 122.771 179.119Z" fill="#27DEBF"/>
<path d="M130.396 183.422C131.447 182.821 133.163 182.821 134.214 183.422C135.266 184.023 135.266 184.979 134.214 185.58C133.163 186.18 131.447 186.18 130.396 185.58C129.344 184.991 129.344 184.023 130.396 183.422Z" fill="#263238"/>
<path d="M138.02 187.737C139.072 187.137 140.787 187.137 141.839 187.737C142.891 188.338 142.891 189.294 141.839 189.895C140.787 190.496 139.072 190.496 138.02 189.895C136.969 189.307 136.969 188.338 138.02 187.737Z" fill="#263238"/>
<path d="M120.856 171.566C121.907 170.966 123.622 170.966 124.674 171.566C125.726 172.167 125.726 173.123 124.674 173.724C123.622 174.325 121.907 174.325 120.856 173.724C119.804 173.123 119.804 172.167 120.856 171.566Z" fill="#27DEBF"/>
<path d="M130.396 178.481C131.882 178.481 133.088 177.8 133.088 176.961C133.088 176.121 131.882 175.441 130.396 175.441C128.909 175.441 127.704 176.121 127.704 176.961C127.704 177.8 128.909 178.481 130.396 178.481Z" fill="#263238"/>
<path d="M136.117 180.197C137.169 179.597 138.884 179.597 139.936 180.197C140.988 180.798 140.988 181.754 139.936 182.355C138.884 182.956 137.169 182.956 136.117 182.355C135.066 181.754 135.066 180.786 136.117 180.197Z" fill="#27DEBF"/>
<path d="M145.658 187.1C147.144 187.1 148.349 186.419 148.349 185.58C148.349 184.74 147.144 184.059 145.658 184.059C144.171 184.059 142.966 184.74 142.966 185.58C142.966 186.419 144.171 187.1 145.658 187.1Z" fill="#263238"/>
<path d="M126.577 168.33C127.629 167.729 129.344 167.729 130.396 168.33C131.447 168.931 131.447 169.887 130.396 170.488C129.344 171.088 127.629 171.088 126.577 170.488C125.526 169.899 125.526 168.931 126.577 168.33Z" fill="#263238"/>
<path d="M134.214 172.645C135.266 172.045 136.981 172.045 138.033 172.645C139.085 173.246 139.085 174.202 138.033 174.803C136.981 175.404 135.266 175.404 134.214 174.803C133.163 174.202 133.15 173.246 134.214 172.645Z" fill="#27DEBF"/>
<path d="M141.839 176.961C142.891 176.36 144.606 176.36 145.658 176.961C146.709 177.562 146.709 178.518 145.658 179.119C144.606 179.719 142.891 179.719 141.839 179.119C140.787 178.518 140.787 177.549 141.839 176.961Z" fill="#263238"/>
<path d="M145.695 191.967C146.747 191.366 148.462 191.366 149.514 191.967C150.566 192.568 150.566 193.524 149.514 194.125C148.462 194.726 146.747 194.726 145.695 194.125C144.644 193.524 144.644 192.568 145.695 191.967Z" fill="#27DEBF"/>
<path d="M151.417 188.73C152.469 188.13 154.184 188.13 155.235 188.73C156.287 189.331 156.287 190.287 155.235 190.888C154.184 191.489 152.469 191.489 151.417 190.888C150.365 190.287 150.365 189.331 151.417 188.73Z" fill="#263238"/>
<path d="M149.464 181.276C150.515 180.676 152.231 180.676 153.282 181.276C154.334 181.877 154.334 182.833 153.282 183.434C152.231 184.035 150.515 184.035 149.464 183.434C148.412 182.833 148.412 181.865 149.464 181.276Z" fill="#263238"/>
<path d="M134.214 167.704C135.701 167.704 136.906 167.024 136.906 166.184C136.906 165.345 135.701 164.664 134.214 164.664C132.728 164.664 131.523 165.345 131.523 166.184C131.523 167.024 132.728 167.704 134.214 167.704Z" fill="#27DEBF"/>
<path d="M139.936 169.409C140.988 168.808 142.703 168.808 143.755 169.409C144.806 170.009 144.806 170.966 143.755 171.566C142.703 172.167 140.988 172.167 139.936 171.566C138.872 170.978 138.872 170.009 139.936 169.409Z" fill="#263238"/>
<path d="M149.464 176.323C150.95 176.323 152.156 175.643 152.156 174.803C152.156 173.963 150.95 173.283 149.464 173.283C147.977 173.283 146.772 173.963 146.772 174.803C146.772 175.643 147.977 176.323 149.464 176.323Z" fill="#27DEBF"/>
<path d="M155.185 178.04C156.237 177.439 157.952 177.439 159.004 178.04C160.056 178.64 160.056 179.597 159.004 180.197C157.952 180.798 156.237 180.798 155.185 180.197C154.134 179.597 154.134 178.64 155.185 178.04Z" fill="#263238"/>
<path d="M157.139 185.506C158.19 184.905 159.905 184.905 160.957 185.506C162.009 186.107 162.009 187.063 160.957 187.664C159.905 188.265 158.19 188.265 157.139 187.664C156.087 187.063 156.087 186.095 157.139 185.506Z" fill="#27DEBF"/>
<path d="M164.763 184.868C166.25 184.868 167.455 184.188 167.455 183.348C167.455 182.509 166.25 181.828 164.763 181.828C163.277 181.828 162.071 182.509 162.071 183.348C162.071 184.188 163.277 184.868 164.763 184.868Z" fill="#263238"/>
<path d="M149.063 200.635V206.373C148.45 206.385 147.824 206.274 147.348 206.005L104.83 181.963C103.929 181.46 103.202 180.222 103.202 179.204V177.132C103.202 176.237 103.766 175.171 104.529 174.582C103.941 175.085 104.041 175.772 104.83 176.213L147.348 200.255C147.824 200.524 148.45 200.647 149.063 200.635Z" fill="#37474F"/>
<path d="M140.449 155.849L140.487 155.8C140.9 155.261 141.714 155.089 142.315 155.432L179.311 176.348C179.912 176.691 180.063 177.402 179.649 177.942L179.612 177.991C179.199 178.53 178.372 178.702 177.784 178.358L140.787 157.443C140.199 157.112 140.036 156.401 140.449 155.849Z" fill="#263238"/>
<path d="M140.449 155.849L140.487 155.8C140.9 155.261 141.714 155.089 142.315 155.432L169.821 170.99L168.281 173.001L140.787 157.455C140.199 157.112 140.036 156.401 140.449 155.849Z" fill="#27DEBF"/>
<path d="M143.517 151.828L143.554 151.779C143.967 151.239 144.781 151.068 145.382 151.411L182.379 172.326C182.98 172.67 183.13 173.381 182.717 173.92L182.679 173.969C182.266 174.509 181.44 174.68 180.851 174.337L143.855 153.422C143.254 153.091 143.104 152.379 143.517 151.828Z" fill="#263238"/>
<path d="M143.517 151.828L143.554 151.779C143.967 151.239 144.781 151.068 145.382 151.411L154.584 156.609L153.044 158.62L143.855 153.422C143.254 153.091 143.104 152.379 143.517 151.828Z" fill="#27DEBF"/>
<path d="M146.572 147.819L146.609 147.77C147.022 147.23 147.836 147.059 148.437 147.402L185.434 168.317C186.035 168.661 186.185 169.372 185.772 169.911L185.734 169.96C185.321 170.5 184.495 170.671 183.906 170.328L146.91 149.413C146.309 149.069 146.158 148.358 146.572 147.819Z" fill="#263238"/>
<path d="M146.572 147.819L146.609 147.77C147.022 147.23 147.836 147.059 148.437 147.39L167.705 158.252L166.165 160.263L146.897 149.4C146.309 149.069 146.158 148.358 146.572 147.819Z" fill="#27DEBF"/>
<path d="M149.627 143.797L149.664 143.748C150.077 143.209 150.891 143.037 151.492 143.381L188.489 164.296C189.09 164.639 189.24 165.351 188.827 165.89L188.789 165.939C188.376 166.478 187.55 166.65 186.961 166.307L149.965 145.391C149.376 145.048 149.213 144.337 149.627 143.797Z" fill="#263238"/>
<path d="M149.627 143.797L149.664 143.748C150.077 143.209 150.891 143.037 151.492 143.381L185.083 162.371L183.543 164.382L149.965 145.404C149.376 145.048 149.213 144.337 149.627 143.797Z" fill="#27DEBF"/>
<path d="M321.163 378.589V445.737C321.163 446.239 321.526 446.865 321.977 447.122L387.707 484.233C388.158 484.491 388.884 484.491 389.334 484.233L391.525 482.995C391.976 482.738 392.339 482.124 392.339 481.61V414.462C392.339 413.959 391.914 413.542 391.4 413.542L322.115 377.669C321.589 377.669 321.163 378.086 321.163 378.589Z" fill="#FAFAFA"/>
<path d="M391.4 413.542H389.46C388.946 413.542 388.521 413.959 388.521 414.462V483.767C388.521 484.27 388.884 484.478 389.334 484.233L391.525 482.995C391.976 482.737 392.339 482.124 392.339 481.61V414.462C392.339 413.959 391.914 413.542 391.4 413.542Z" fill="#F5F5F5"/>
<path d="M452.06 301.657V368.805C452.06 369.308 452.423 369.933 452.873 370.178L521.195 408.773C521.646 409.03 522.372 409.03 522.823 408.773L525.014 407.535C525.464 407.277 525.827 406.664 525.827 406.149V339.001C525.827 338.499 525.402 338.082 524.888 338.082L453.011 300.726C452.473 300.738 452.06 301.142 452.06 301.657Z" fill="#E0E0E0"/>
<path d="M524.876 338.094H522.935C522.422 338.094 521.996 338.511 521.996 339.013V408.319C521.996 408.822 522.359 409.03 522.81 408.785L525.001 407.547C525.452 407.289 525.815 406.676 525.815 406.162V339.013C525.815 338.499 525.402 338.094 524.876 338.094Z" fill="#EBEBEB"/>
<path d="M314.753 376.48V375.843C314.753 374.825 315.479 373.587 316.38 373.084L454.251 295.135C455.152 294.632 456.604 294.632 457.506 295.135L530.535 336.427C531.436 336.929 532.163 338.168 532.163 339.185V339.823C532.163 340.84 531.436 342.079 530.535 342.581L392.665 420.53C391.763 421.033 390.311 421.033 389.41 420.53L316.38 379.239C315.491 378.736 314.753 377.498 314.753 376.48Z" fill="#F5F5F5"/>
<path d="M391.05 416.607V420.923C390.461 420.923 389.873 420.788 389.422 420.543L316.393 379.251C315.491 378.736 314.765 377.51 314.765 376.492V375.855C314.765 374.96 315.329 373.881 316.092 373.305C315.504 373.795 315.604 374.482 316.393 374.935L389.422 416.227C389.873 416.484 390.461 416.607 391.05 416.607Z" fill="#EBEBEB"/>
<path d="M316.38 374.935L389.41 416.227C390.311 416.73 391.763 416.73 392.665 416.227L530.535 338.278C531.436 337.775 531.436 336.942 530.535 336.439L457.506 295.147C456.604 294.645 455.152 294.645 454.251 295.147L316.38 373.096C315.491 373.599 315.491 374.42 316.38 374.935Z" fill="#FAFAFA"/>
<path d="M434.093 346.1L475.384 322.708C476.123 322.291 477.312 322.291 478.051 322.708L491.122 330.186C491.861 330.603 491.861 331.277 491.122 331.694L449.831 355.086C449.092 355.503 447.903 355.503 447.164 355.086L434.093 347.608C433.355 347.191 433.355 346.517 434.093 346.1Z" fill="#EBEBEB"/>
<path d="M441.418 331.596L441.38 331.572L437.011 329.095C436.41 328.752 436.41 328.212 437.011 327.869L471.315 308.474C471.916 308.131 471.916 307.591 471.315 307.248L470.965 307.052C470.364 306.708 469.4 306.708 468.799 307.052L435.458 325.908C434.857 326.251 434.306 326.275 434.281 325.969C434.269 325.785 434.281 325.589 434.319 325.405L436.209 315.818C436.335 315.156 435.959 314.346 435.358 314.003L435.02 313.807C434.419 313.476 433.831 313.733 433.693 314.408L431.514 325.54C431.439 325.932 431.427 326.361 431.489 326.778C431.589 327.452 431.339 328.225 430.751 328.568L409.942 340.338C409.341 340.681 409.341 341.22 409.942 341.564L410.293 341.76C410.894 342.103 411.858 342.103 412.459 341.76L432.353 330.517C432.954 330.174 433.48 329.929 433.518 329.966C433.543 329.99 433.568 330.002 433.605 330.027L440.366 333.852C440.967 334.195 441.931 334.195 442.532 333.852C445.499 332.185 453.712 327.55 456.68 325.871C457.28 325.528 457.481 325.098 457.118 324.902C456.755 324.706 455.966 324.78 455.34 325.074L442.569 331.094C441.956 331.376 441.43 331.608 441.418 331.596Z" fill="#EBEBEB"/>
<path d="M477.876 319.618L490.246 326.606C490.984 327.023 491.585 327.992 491.585 328.776C491.585 329.561 490.984 330.53 490.246 330.946L450.307 353.529C449.568 353.946 448.379 353.946 447.64 353.529L435.27 346.541C434.532 346.124 433.931 345.156 433.931 344.371C433.931 343.587 434.532 342.618 435.27 342.201L475.209 319.618C475.948 319.201 477.137 319.201 477.876 319.618Z" fill="#37474F"/>
<path d="M448.967 353.848C448.479 353.848 448.003 353.738 447.628 353.529L435.258 346.541C434.519 346.124 433.918 345.156 433.918 344.371C433.918 343.587 434.519 342.618 435.258 342.201L436.547 341.478H448.967V353.848Z" fill="#263238"/>
<path d="M435.258 342.201L475.197 319.618C475.935 319.201 477.125 319.201 477.863 319.618L490.233 326.606C490.972 327.023 490.972 327.698 490.233 328.114L450.294 350.697C449.556 351.114 448.366 351.114 447.628 350.697L435.258 343.709C434.519 343.292 434.519 342.618 435.258 342.201Z" fill="#455A64"/>
<path d="M471.766 330.039L473.018 329.328C473.068 329.304 473.068 329.242 473.006 329.218L471.553 328.396C471.491 328.36 471.403 328.36 471.353 328.396L470.101 329.107C470.051 329.132 470.051 329.193 470.113 329.218L471.566 330.039C471.628 330.064 471.716 330.064 471.766 330.039ZM469.287 327.207L468.035 327.918C467.985 327.943 467.985 328.004 468.048 328.029L469.5 328.85C469.563 328.887 469.65 328.887 469.7 328.85L470.952 328.139C471.002 328.114 471.002 328.053 470.94 328.029L469.487 327.207C469.425 327.183 469.337 327.183 469.287 327.207ZM465.218 329.512L463.09 330.714C463.04 330.738 463.04 330.799 463.102 330.824L464.555 331.645C464.617 331.682 464.705 331.682 464.755 331.645L466.883 330.444C466.933 330.419 466.933 330.358 466.871 330.333L465.418 329.512C465.368 329.475 465.281 329.475 465.218 329.512ZM467.447 328.249L466.195 328.96C466.145 328.985 466.145 329.046 466.207 329.071L467.66 329.892C467.722 329.929 467.81 329.929 467.86 329.892L469.112 329.181C469.162 329.157 469.162 329.095 469.099 329.071L467.647 328.249C467.584 328.225 467.497 328.212 467.447 328.249ZM462.514 331.032L461.262 331.743C461.212 331.768 461.212 331.829 461.274 331.854L462.727 332.675C462.789 332.712 462.877 332.712 462.927 332.675L464.179 331.964C464.229 331.94 464.229 331.878 464.166 331.854L462.714 331.032C462.652 331.008 462.564 331.008 462.514 331.032ZM460.673 332.074L459.421 332.785C459.371 332.81 459.371 332.871 459.434 332.896L460.886 333.717C460.949 333.754 461.036 333.754 461.087 333.717L462.339 333.006C462.389 332.982 462.389 332.92 462.326 332.896L460.874 332.074C460.824 332.05 460.723 332.05 460.673 332.074ZM466.395 335.421L467.647 334.71C467.697 334.686 467.697 334.624 467.635 334.6L466.182 333.779C466.12 333.742 466.032 333.742 465.982 333.779L464.73 334.49C464.68 334.514 464.68 334.575 464.742 334.6L466.195 335.421C466.257 335.446 466.345 335.446 466.395 335.421ZM464.555 336.463L465.807 335.752C465.857 335.728 465.857 335.667 465.794 335.642L464.342 334.821C464.279 334.784 464.192 334.784 464.141 334.821L462.889 335.532C462.839 335.556 462.839 335.618 462.902 335.642L464.354 336.463C464.417 336.488 464.505 336.488 464.555 336.463ZM462.714 337.493L463.966 336.782C464.016 336.758 464.016 336.696 463.954 336.672L462.501 335.85C462.439 335.814 462.351 335.814 462.301 335.85L461.049 336.562C460.999 336.586 460.999 336.647 461.062 336.672L462.514 337.493C462.576 337.53 462.664 337.53 462.714 337.493ZM460.886 338.535L462.138 337.824C462.188 337.8 462.188 337.739 462.126 337.714L460.673 336.893C460.611 336.856 460.523 336.856 460.473 336.893L459.221 337.604C459.171 337.628 459.171 337.689 459.234 337.714L460.686 338.535C460.736 338.56 460.824 338.572 460.886 338.535ZM469.926 331.069L471.178 330.358C471.228 330.333 471.228 330.272 471.165 330.248L469.713 329.426C469.65 329.389 469.563 329.389 469.513 329.426L468.261 330.137C468.21 330.162 468.21 330.223 468.273 330.248L469.725 331.069C469.788 331.106 469.876 331.106 469.926 331.069ZM468.235 334.379L471.04 332.798C471.09 332.773 471.09 332.712 471.027 332.687L467.497 330.689C467.434 330.652 467.347 330.652 467.296 330.689L465.844 331.51C465.794 331.535 465.794 331.596 465.857 331.621L467.722 332.675C467.785 332.712 467.785 332.761 467.735 332.785L466.57 333.448C466.52 333.472 466.52 333.533 466.583 333.558L468.035 334.379C468.085 334.404 468.185 334.416 468.235 334.379ZM458.833 333.116L457.581 333.828C457.531 333.852 457.531 333.913 457.593 333.938L459.046 334.759C459.108 334.796 459.196 334.796 459.246 334.759L460.498 334.048C460.548 334.024 460.548 333.962 460.486 333.938L459.033 333.116C458.983 333.092 458.896 333.08 458.833 333.116ZM457.005 334.159L455.753 334.87C455.703 334.894 455.703 334.956 455.766 334.98L457.218 335.801C457.28 335.838 457.368 335.838 457.418 335.801L458.67 335.09C458.72 335.066 458.72 335.005 458.658 334.98L457.205 334.159C457.143 334.122 457.055 334.122 457.005 334.159ZM447.815 345.806C447.878 345.842 447.966 345.842 448.016 345.806L449.268 345.095C449.318 345.07 449.318 345.009 449.255 344.984L447.803 344.163C447.74 344.126 447.653 344.126 447.603 344.163L446.351 344.874C446.3 344.898 446.3 344.96 446.363 344.984L447.815 345.806ZM442.294 342.471L441.042 343.182C440.992 343.206 440.992 343.268 441.055 343.292L442.507 344.114C442.569 344.15 442.657 344.15 442.707 344.114L443.959 343.403C444.009 343.378 444.009 343.317 443.947 343.292L442.494 342.471C442.444 342.434 442.344 342.434 442.294 342.471ZM445.249 344.911C445.311 344.947 445.399 344.947 445.449 344.911L446.701 344.2C446.751 344.175 446.751 344.114 446.689 344.089L445.236 343.268C445.174 343.231 445.086 343.231 445.036 343.268L443.784 343.979C443.734 344.003 443.734 344.065 443.796 344.089L445.249 344.911ZM451.058 346.443L452.31 345.732C452.36 345.708 452.36 345.646 452.298 345.622L450.845 344.8C450.783 344.763 450.695 344.763 450.645 344.8L449.393 345.511C449.343 345.536 449.343 345.597 449.405 345.622L450.858 346.443C450.92 346.468 451.008 346.468 451.058 346.443ZM449.017 347.473C449.08 347.51 449.168 347.51 449.218 347.473L450.47 346.762C450.52 346.737 450.52 346.676 450.457 346.652L449.005 345.83C448.942 345.793 448.855 345.793 448.804 345.83L447.552 346.541C447.502 346.566 447.502 346.627 447.565 346.652L449.017 347.473ZM444.134 341.429L442.882 342.14C442.832 342.164 442.832 342.226 442.895 342.25L444.347 343.072C444.41 343.108 444.498 343.108 444.548 343.072L445.8 342.361C445.85 342.336 445.85 342.275 445.787 342.25L444.335 341.429C444.272 341.404 444.185 341.404 444.134 341.429ZM453.324 336.231L452.072 336.942C452.022 336.966 452.022 337.027 452.085 337.052L453.537 337.873C453.6 337.91 453.687 337.91 453.737 337.873L454.989 337.162C455.039 337.138 455.039 337.076 454.977 337.052L453.524 336.231C453.462 336.206 453.374 336.206 453.324 336.231ZM445.975 340.387L444.723 341.098C444.673 341.122 444.673 341.184 444.735 341.208L446.188 342.03C446.25 342.066 446.338 342.066 446.388 342.03L447.64 341.318C447.69 341.294 447.69 341.233 447.628 341.208L446.175 340.387C446.113 340.362 446.025 340.362 445.975 340.387ZM455.165 335.188L453.913 335.9C453.863 335.924 453.863 335.985 453.925 336.01L455.377 336.831C455.44 336.868 455.528 336.868 455.578 336.831L456.83 336.12C456.88 336.096 456.88 336.034 456.817 336.01L455.365 335.188C455.302 335.164 455.215 335.164 455.165 335.188ZM451.484 337.273L450.232 337.984C450.182 338.008 450.182 338.07 450.244 338.094L451.697 338.915C451.759 338.952 451.847 338.952 451.897 338.915L453.149 338.204C453.199 338.18 453.199 338.119 453.136 338.094L451.684 337.273C451.634 337.248 451.534 337.236 451.484 337.273ZM449.643 338.315L448.391 339.026C448.341 339.05 448.341 339.112 448.404 339.136L449.856 339.958C449.919 339.994 450.006 339.994 450.056 339.958L451.308 339.246C451.359 339.222 451.359 339.161 451.296 339.136L449.844 338.315C449.794 338.278 449.706 338.278 449.643 338.315ZM447.815 339.345L446.563 340.056C446.513 340.08 446.513 340.141 446.576 340.166L448.028 340.987C448.091 341.024 448.178 341.024 448.229 340.987L449.481 340.276C449.531 340.252 449.531 340.191 449.468 340.166L448.016 339.345C447.953 339.32 447.865 339.32 447.815 339.345ZM457.205 340.62L458.457 339.909C458.507 339.884 458.507 339.823 458.445 339.798L456.993 338.977C456.93 338.94 456.842 338.94 456.792 338.977L455.54 339.688C455.49 339.712 455.49 339.774 455.553 339.798L457.005 340.62C457.068 340.644 457.155 340.644 457.205 340.62ZM473.344 324.915L472.092 325.626C472.042 325.65 472.042 325.711 472.104 325.736L473.556 326.557C473.619 326.594 473.707 326.594 473.757 326.557L475.009 325.846C475.059 325.822 475.059 325.76 474.996 325.736L473.544 324.915C473.494 324.878 473.406 324.878 473.344 324.915ZM471.128 326.165L469.876 326.876C469.826 326.901 469.826 326.962 469.888 326.986L471.34 327.808C471.403 327.845 471.491 327.845 471.541 327.808L472.793 327.097C472.843 327.072 472.843 327.011 472.78 326.986L471.328 326.165C471.265 326.141 471.178 326.141 471.128 326.165ZM475.184 323.872L473.932 324.584C473.882 324.608 473.882 324.669 473.945 324.694L475.397 325.515C475.46 325.552 475.547 325.552 475.597 325.515L476.849 324.804C476.899 324.78 476.899 324.718 476.837 324.694L475.384 323.872C475.334 323.848 475.234 323.848 475.184 323.872ZM465.669 333.484L466.921 332.773C466.971 332.749 466.971 332.687 466.908 332.663L465.456 331.841C465.393 331.805 465.306 331.805 465.256 331.841L464.004 332.553C463.954 332.577 463.954 332.638 464.016 332.663L465.469 333.484C465.531 333.509 465.619 333.509 465.669 333.484ZM477.225 322.843C477.162 322.806 477.075 322.806 477.025 322.843L475.773 323.554C475.722 323.578 475.722 323.639 475.785 323.664L477.237 324.485C477.3 324.522 477.388 324.522 477.438 324.485L478.69 323.774C478.74 323.75 478.74 323.689 478.677 323.664L477.225 322.843ZM459.046 339.578L460.298 338.866C460.348 338.842 460.348 338.781 460.285 338.756L458.833 337.935C458.77 337.898 458.683 337.898 458.633 337.935L457.381 338.646C457.331 338.67 457.331 338.732 457.393 338.756L458.845 339.578C458.896 339.602 458.996 339.602 459.046 339.578ZM481.582 326.839L482.834 326.128C482.884 326.104 482.884 326.042 482.821 326.018L481.369 325.197C481.306 325.16 481.219 325.16 481.169 325.197L479.917 325.908C479.867 325.932 479.867 325.993 479.929 326.018L481.381 326.839C481.444 326.864 481.532 326.864 481.582 326.839ZM477.663 326.692L478.915 325.981C478.965 325.957 478.965 325.895 478.903 325.871L477.45 325.049C477.388 325.013 477.3 325.013 477.25 325.049L475.998 325.76C475.948 325.785 475.948 325.846 476.01 325.871L477.463 326.692C477.525 326.729 477.613 326.729 477.663 326.692ZM479.303 324.007C479.241 323.971 479.153 323.971 479.103 324.007L477.851 324.718C477.801 324.743 477.801 324.804 477.863 324.829L479.316 325.65C479.378 325.687 479.466 325.687 479.516 325.65L480.768 324.939C480.818 324.915 480.818 324.853 480.755 324.829L479.303 324.007ZM479.691 323.799L483.222 325.797C483.285 325.834 483.372 325.834 483.422 325.797L484.674 325.086C484.724 325.062 484.724 325 484.662 324.976L481.131 322.977C481.068 322.941 480.981 322.941 480.931 322.977L479.679 323.689C479.629 323.713 479.629 323.762 479.691 323.799ZM475.422 326.092L474.17 326.803C474.12 326.827 474.12 326.888 474.182 326.913L475.635 327.734C475.697 327.771 475.785 327.771 475.835 327.734L477.087 327.023C477.137 326.999 477.137 326.937 477.075 326.913L475.622 326.092C475.572 326.055 475.472 326.055 475.422 326.092ZM461.587 333.913L460.335 334.624C460.285 334.649 460.285 334.71 460.348 334.735L461.8 335.556C461.863 335.593 461.95 335.593 462.001 335.556L463.253 334.845C463.303 334.821 463.303 334.759 463.24 334.735L461.788 333.913C461.738 333.877 461.65 333.877 461.587 333.913ZM479.541 327.869C479.604 327.906 479.691 327.906 479.741 327.869L480.993 327.158C481.043 327.134 481.043 327.072 480.981 327.048L479.529 326.226C479.466 326.19 479.378 326.19 479.328 326.226L478.076 326.937C478.026 326.962 478.026 327.023 478.089 327.048L479.541 327.869ZM463.428 332.871L462.176 333.582C462.126 333.607 462.126 333.668 462.188 333.693L463.641 334.514C463.703 334.551 463.791 334.551 463.841 334.514L465.093 333.803C465.143 333.779 465.143 333.717 465.08 333.693L463.628 332.871C463.578 332.835 463.478 332.835 463.428 332.871ZM449.656 344.763C449.718 344.8 449.806 344.8 449.856 344.763L451.108 344.052C451.158 344.028 451.158 343.967 451.096 343.942L449.643 343.121C449.581 343.084 449.493 343.084 449.443 343.121L448.191 343.832C448.141 343.856 448.141 343.918 448.203 343.942L449.656 344.763ZM446.889 342.226L445.637 342.937C445.587 342.961 445.587 343.023 445.649 343.047L447.102 343.869C447.164 343.905 447.252 343.905 447.302 343.869L448.554 343.157C448.604 343.133 448.604 343.072 448.542 343.047L447.089 342.226C447.027 342.189 446.939 342.189 446.889 342.226ZM451.697 343.734L452.949 343.023C452.999 342.998 452.999 342.937 452.936 342.912L451.484 342.091C451.421 342.054 451.333 342.054 451.283 342.091L450.031 342.802C449.981 342.826 449.981 342.888 450.044 342.912L451.496 343.734C451.546 343.758 451.634 343.758 451.697 343.734ZM453.524 342.692L454.776 341.98C454.827 341.956 454.827 341.895 454.764 341.87L453.312 341.049C453.249 341.012 453.161 341.012 453.111 341.049L451.859 341.76C451.809 341.784 451.809 341.846 451.872 341.87L453.324 342.692C453.387 342.716 453.474 342.728 453.524 342.692ZM455.365 341.649L456.617 340.938C456.667 340.914 456.667 340.853 456.604 340.828L455.152 340.007C455.089 339.97 455.002 339.97 454.952 340.007L453.7 340.718C453.65 340.742 453.65 340.804 453.712 340.828L455.165 341.649C455.227 341.686 455.315 341.686 455.365 341.649ZM448.729 341.184L447.477 341.895C447.427 341.919 447.427 341.98 447.49 342.005L448.942 342.826C449.005 342.863 449.092 342.863 449.142 342.826L450.394 342.115C450.445 342.091 450.445 342.03 450.382 342.005L448.93 341.184C448.867 341.147 448.779 341.147 448.729 341.184ZM450.57 340.141L449.318 340.853C449.268 340.877 449.268 340.938 449.33 340.963L450.783 341.784C450.845 341.821 450.933 341.821 450.983 341.784L452.235 341.073C452.285 341.049 452.285 340.987 452.222 340.963L450.77 340.141C450.707 340.117 450.62 340.117 450.57 340.141ZM457.919 335.985L456.667 336.696C456.617 336.721 456.617 336.782 456.68 336.807L458.132 337.628C458.194 337.665 458.282 337.665 458.332 337.628L459.584 336.917C459.634 336.893 459.634 336.831 459.572 336.807L458.119 335.985C458.057 335.961 457.969 335.961 457.919 335.985ZM456.079 337.027L454.827 337.739C454.776 337.763 454.776 337.824 454.839 337.849L456.291 338.67C456.354 338.707 456.442 338.707 456.492 338.67L457.744 337.959C457.794 337.935 457.794 337.873 457.731 337.849L456.279 337.027C456.216 336.991 456.129 336.991 456.079 337.027ZM459.759 334.943L458.507 335.654C458.457 335.679 458.457 335.74 458.52 335.765L459.972 336.586C460.035 336.623 460.123 336.623 460.173 336.586L461.425 335.875C461.475 335.85 461.475 335.789 461.412 335.765L459.96 334.943C459.897 334.919 459.81 334.919 459.759 334.943ZM452.398 339.099L451.146 339.81C451.096 339.835 451.096 339.896 451.158 339.921L452.611 340.742C452.673 340.779 452.761 340.779 452.811 340.742L454.063 340.031C454.113 340.007 454.113 339.945 454.05 339.921L452.598 339.099C452.548 339.075 452.46 339.075 452.398 339.099ZM454.238 338.07L452.986 338.781C452.936 338.805 452.936 338.866 452.999 338.891L454.451 339.712C454.514 339.749 454.601 339.749 454.651 339.712L455.903 339.001C455.953 338.977 455.953 338.915 455.891 338.891L454.438 338.07C454.388 338.033 454.288 338.033 454.238 338.07ZM452.898 345.401L454.15 344.69C454.201 344.665 454.201 344.604 454.138 344.58L452.686 343.758C452.623 343.721 452.535 343.721 452.485 343.758L451.233 344.469C451.183 344.494 451.183 344.555 451.246 344.58L452.698 345.401C452.761 345.426 452.848 345.426 452.898 345.401ZM442.119 344.334L440.666 343.513C440.604 343.476 440.516 343.476 440.466 343.513L439.214 344.224C439.164 344.249 439.164 344.31 439.227 344.334L440.679 345.156C440.742 345.193 440.829 345.193 440.879 345.156L442.131 344.445C442.169 344.42 442.169 344.371 442.119 344.334ZM444.861 345.119L443.408 344.298C443.346 344.261 443.258 344.261 443.208 344.298L441.267 345.389C441.217 345.413 441.217 345.475 441.28 345.499L442.732 346.321C442.795 346.357 442.882 346.357 442.933 346.321L444.873 345.229C444.923 345.205 444.923 345.156 444.861 345.119ZM439.878 342.741L438.425 341.919C438.363 341.882 438.275 341.882 438.225 341.919L436.673 342.79C436.622 342.814 436.622 342.875 436.685 342.9L438.137 343.721C438.2 343.758 438.288 343.758 438.338 343.721L439.89 342.851C439.94 342.826 439.94 342.777 439.878 342.741ZM441.067 342.079C441.13 342.115 441.217 342.115 441.267 342.079L442.519 341.367C442.57 341.343 442.569 341.282 442.507 341.257L441.055 340.436C440.992 340.399 440.904 340.399 440.854 340.436L439.602 341.147C439.552 341.171 439.552 341.233 439.615 341.257L441.067 342.079ZM447.427 346.026L445.975 345.205C445.912 345.168 445.825 345.168 445.775 345.205L443.358 346.578C443.308 346.603 443.308 346.664 443.371 346.688L444.823 347.51C444.886 347.547 444.973 347.547 445.023 347.51L447.44 346.137C447.49 346.112 447.49 346.063 447.427 346.026ZM448.629 347.694L447.177 346.872C447.114 346.835 447.027 346.835 446.977 346.872L445.424 347.743C445.374 347.767 445.374 347.829 445.437 347.853L446.889 348.674C446.951 348.711 447.039 348.711 447.089 348.674L448.642 347.804C448.692 347.779 448.692 347.73 448.629 347.694ZM454.739 334.342C454.802 334.379 454.889 334.379 454.939 334.342L456.191 333.631C456.241 333.607 456.241 333.546 456.179 333.521L454.726 332.7C454.664 332.663 454.576 332.663 454.526 332.7L453.274 333.411C453.224 333.435 453.224 333.497 453.287 333.521L454.739 334.342ZM451.058 336.427C451.121 336.463 451.208 336.463 451.258 336.427L452.51 335.716C452.56 335.691 452.56 335.63 452.498 335.605L451.046 334.784C450.983 334.747 450.895 334.747 450.845 334.784L449.593 335.495C449.543 335.519 449.543 335.581 449.606 335.605L451.058 336.427ZM442.908 341.036C442.97 341.073 443.058 341.073 443.108 341.036L444.36 340.325C444.41 340.301 444.41 340.24 444.347 340.215L442.895 339.394C442.832 339.357 442.745 339.357 442.695 339.394L441.443 340.105C441.393 340.129 441.393 340.191 441.455 340.215L442.908 341.036ZM452.898 335.385C452.961 335.421 453.049 335.421 453.099 335.385L454.351 334.674C454.401 334.649 454.401 334.588 454.338 334.563L452.886 333.742C452.823 333.705 452.736 333.705 452.686 333.742L451.434 334.453C451.384 334.477 451.384 334.539 451.446 334.563L452.898 335.385ZM449.218 337.469C449.28 337.506 449.368 337.506 449.418 337.469L450.67 336.758C450.72 336.733 450.72 336.672 450.657 336.647L449.205 335.826C449.142 335.789 449.055 335.789 449.005 335.826L447.753 336.537C447.703 336.562 447.703 336.623 447.765 336.647L449.218 337.469ZM449.643 347.828C449.581 347.792 449.493 347.792 449.443 347.828L447.502 348.92C447.452 348.944 447.452 349.005 447.515 349.03L448.967 349.851C449.03 349.888 449.117 349.888 449.168 349.851L451.108 348.76C451.158 348.736 451.158 348.674 451.096 348.65L449.643 347.828ZM446.576 338.952C446.638 338.989 446.726 338.989 446.776 338.952L448.028 338.241C448.078 338.217 448.078 338.155 448.016 338.131L446.563 337.309C446.501 337.273 446.413 337.273 446.363 337.309L445.111 338.02C445.061 338.045 445.061 338.106 445.124 338.131L446.576 338.952ZM444.748 339.994C444.811 340.031 444.898 340.031 444.948 339.994L446.2 339.283C446.25 339.259 446.25 339.197 446.188 339.173L444.735 338.352C444.673 338.315 444.585 338.315 444.535 338.352L443.283 339.063C443.233 339.087 443.233 339.148 443.296 339.173L444.748 339.994ZM483.698 328.58C483.635 328.544 483.547 328.544 483.497 328.58L480.405 330.333C480.355 330.358 480.355 330.419 480.417 330.444L481.87 331.265C481.932 331.302 482.02 331.302 482.07 331.265L485.163 329.512C485.213 329.488 485.213 329.426 485.15 329.402L483.698 328.58ZM479.629 330.873C479.566 330.836 479.478 330.836 479.428 330.873L478.176 331.584C478.126 331.608 478.126 331.67 478.189 331.694L479.641 332.516C479.704 332.553 479.791 332.553 479.842 332.516L481.094 331.805C481.144 331.78 481.144 331.719 481.081 331.694L479.629 330.873ZM454.739 344.359L455.991 343.648C456.041 343.623 456.041 343.562 455.978 343.537L454.526 342.716C454.463 342.679 454.376 342.679 454.326 342.716L453.074 343.427C453.024 343.452 453.024 343.513 453.086 343.537L454.539 344.359C454.589 344.383 454.676 344.396 454.739 344.359ZM475.96 332.945C475.898 332.908 475.81 332.908 475.76 332.945L474.508 333.656C474.458 333.68 474.458 333.742 474.521 333.766L475.973 334.588C476.035 334.624 476.123 334.624 476.173 334.588L477.425 333.877C477.475 333.852 477.475 333.791 477.413 333.766L475.96 332.945ZM485.538 327.538C485.476 327.501 485.388 327.501 485.338 327.538L484.086 328.249C484.036 328.274 484.036 328.335 484.098 328.36L485.551 329.181C485.613 329.218 485.701 329.218 485.751 329.181L487.003 328.47C487.053 328.445 487.053 328.384 486.99 328.36L485.538 327.538ZM488.831 327.318L485.3 325.319C485.238 325.282 485.15 325.282 485.1 325.319L483.848 326.03C483.798 326.055 483.798 326.116 483.86 326.141L487.391 328.139C487.454 328.176 487.541 328.176 487.591 328.139L488.843 327.428C488.881 327.403 488.881 327.354 488.831 327.318ZM469.087 336.831C469.024 336.794 468.937 336.794 468.887 336.831L467.334 337.702C467.284 337.726 467.284 337.788 467.347 337.812L468.799 338.633C468.861 338.67 468.949 338.67 468.999 338.633L470.552 337.763C470.602 337.739 470.602 337.677 470.539 337.653L469.087 336.831ZM473.732 334.208C473.669 334.171 473.582 334.171 473.531 334.208L471.591 335.299C471.541 335.323 471.541 335.385 471.603 335.409L473.056 336.231C473.118 336.267 473.206 336.267 473.256 336.231L475.197 335.139C475.247 335.115 475.247 335.054 475.184 335.029L473.732 334.208ZM464.83 339.234C464.767 339.197 464.68 339.197 464.63 339.234L454.276 345.082C454.226 345.107 454.226 345.168 454.288 345.193L455.741 346.014C455.803 346.051 455.891 346.051 455.941 346.014L466.295 340.166C466.345 340.141 466.345 340.08 466.282 340.056L464.83 339.234ZM453.9 345.413C453.837 345.376 453.75 345.376 453.7 345.413L452.147 346.284C452.097 346.308 452.097 346.37 452.16 346.394L453.612 347.215C453.675 347.252 453.762 347.252 453.812 347.215L455.365 346.345C455.415 346.321 455.415 346.259 455.352 346.235L453.9 345.413ZM466.958 338.033C466.896 337.996 466.808 337.996 466.758 338.033L465.206 338.903C465.156 338.928 465.156 338.989 465.218 339.014L466.67 339.835C466.733 339.872 466.821 339.872 466.871 339.835L468.423 338.965C468.473 338.94 468.473 338.879 468.411 338.854L466.958 338.033ZM451.772 346.627C451.709 346.59 451.621 346.59 451.571 346.627L450.019 347.497C449.969 347.522 449.969 347.583 450.031 347.608L451.484 348.429C451.546 348.466 451.634 348.466 451.684 348.429L453.237 347.559C453.287 347.534 453.287 347.473 453.224 347.448L451.772 346.627ZM471.215 335.63C471.153 335.593 471.065 335.593 471.015 335.63L469.462 336.5C469.412 336.525 469.412 336.586 469.475 336.611L470.927 337.432C470.99 337.469 471.078 337.469 471.128 337.432L472.68 336.562C472.73 336.537 472.73 336.476 472.668 336.451L471.215 335.63ZM477.788 331.915C477.726 331.878 477.638 331.878 477.588 331.915L476.336 332.626C476.286 332.651 476.286 332.712 476.348 332.736L477.801 333.558C477.863 333.595 477.951 333.595 478.001 333.558L479.253 332.847C479.303 332.822 479.303 332.761 479.241 332.736L477.788 331.915ZM481.82 329.046L483.072 328.335C483.122 328.311 483.122 328.249 483.059 328.225L481.607 327.403C481.544 327.367 481.457 327.367 481.407 327.403L480.155 328.114C480.104 328.139 480.104 328.2 480.167 328.225L481.619 329.046C481.682 329.071 481.77 329.083 481.82 329.046ZM473.607 328.997L474.859 328.286C474.909 328.262 474.909 328.2 474.846 328.176L473.394 327.354C473.331 327.318 473.243 327.318 473.193 327.354L471.941 328.065C471.891 328.09 471.891 328.151 471.954 328.176L473.406 328.997C473.456 329.022 473.556 329.022 473.607 328.997ZM469.437 336.047L473.118 333.962C473.168 333.938 473.168 333.877 473.106 333.852L471.653 333.031C471.591 332.994 471.503 332.994 471.453 333.031L467.772 335.115C467.722 335.139 467.722 335.201 467.785 335.225L469.237 336.047C469.3 336.071 469.387 336.083 469.437 336.047ZM479.779 330.076C479.842 330.113 479.929 330.113 479.979 330.076L481.231 329.365C481.281 329.34 481.281 329.279 481.219 329.255L479.766 328.433C479.704 328.396 479.616 328.396 479.566 328.433L478.314 329.144C478.264 329.169 478.264 329.23 478.327 329.255L479.779 330.076ZM477.901 328.911L479.153 328.2C479.203 328.176 479.203 328.114 479.14 328.09L477.688 327.268C477.625 327.232 477.538 327.232 477.488 327.268L476.236 327.98C476.186 328.004 476.186 328.065 476.248 328.09L477.701 328.911C477.763 328.936 477.851 328.936 477.901 328.911ZM467.597 337.089L468.849 336.378C468.899 336.353 468.899 336.292 468.836 336.267L467.384 335.446C467.322 335.409 467.234 335.409 467.184 335.446L465.932 336.157C465.882 336.181 465.882 336.243 465.944 336.267L467.397 337.089C467.459 337.113 467.547 337.113 467.597 337.089ZM475.722 332.381C475.785 332.418 475.873 332.418 475.923 332.381L477.175 331.67C477.225 331.645 477.225 331.584 477.162 331.559L475.71 330.738C475.647 330.701 475.56 330.701 475.51 330.738L474.258 331.449C474.208 331.474 474.208 331.535 474.27 331.559L475.722 332.381ZM458.407 342.287L459.659 341.576C459.709 341.551 459.709 341.49 459.647 341.466L458.194 340.644C458.132 340.607 458.044 340.607 457.994 340.644L456.742 341.355C456.692 341.38 456.692 341.441 456.755 341.466L458.207 342.287C458.27 342.311 458.357 342.311 458.407 342.287ZM460.248 341.245L461.5 340.534C461.55 340.509 461.55 340.448 461.487 340.423L460.035 339.602C459.972 339.565 459.885 339.565 459.835 339.602L458.583 340.313C458.532 340.338 458.532 340.399 458.595 340.423L460.047 341.245C460.11 341.269 460.198 341.269 460.248 341.245ZM456.579 343.317L457.831 342.606C457.881 342.581 457.881 342.52 457.819 342.495L456.367 341.674C456.304 341.637 456.216 341.637 456.166 341.674L454.914 342.385C454.864 342.41 454.864 342.471 454.927 342.495L456.379 343.317C456.429 343.354 456.517 343.354 456.579 343.317ZM463.929 339.161L465.181 338.45C465.231 338.425 465.231 338.364 465.168 338.339L463.716 337.518C463.653 337.481 463.566 337.481 463.515 337.518L462.263 338.229C462.213 338.253 462.213 338.315 462.276 338.339L463.728 339.161C463.778 339.197 463.866 339.197 463.929 339.161ZM462.088 340.203L463.34 339.492C463.39 339.467 463.39 339.406 463.328 339.381L461.875 338.56C461.813 338.523 461.725 338.523 461.675 338.56L460.423 339.271C460.373 339.296 460.373 339.357 460.436 339.381L461.888 340.203C461.95 340.227 462.038 340.24 462.088 340.203ZM465.769 338.131L467.021 337.42C467.071 337.395 467.071 337.334 467.009 337.309L465.556 336.488C465.494 336.451 465.406 336.451 465.356 336.488L464.104 337.199C464.054 337.224 464.054 337.285 464.116 337.309L465.569 338.131C465.619 338.155 465.706 338.155 465.769 338.131ZM474.17 322.757C474.233 322.794 474.32 322.794 474.37 322.757L475.622 322.046C475.672 322.021 475.672 321.96 475.61 321.935L475.222 321.715C475.159 321.678 475.071 321.678 475.021 321.715L473.769 322.426C473.719 322.45 473.719 322.512 473.782 322.536L474.17 322.757ZM465.131 328.47C465.193 328.507 465.281 328.507 465.331 328.47L466.583 327.759C466.633 327.734 466.633 327.673 466.57 327.649L465.118 326.827C465.055 326.79 464.968 326.79 464.918 326.827L463.666 327.538C463.616 327.563 463.616 327.624 463.678 327.649L465.131 328.47ZM468.799 326.386C468.861 326.423 468.949 326.423 468.999 326.386L470.251 325.675C470.301 325.65 470.301 325.589 470.239 325.564L468.786 324.743C468.724 324.706 468.636 324.706 468.586 324.743L467.334 325.454C467.284 325.478 467.284 325.54 467.347 325.564L468.799 326.386ZM462.889 329.733C462.952 329.77 463.04 329.77 463.09 329.733L464.342 329.022C464.392 328.997 464.392 328.936 464.329 328.911L462.877 328.09C462.814 328.053 462.727 328.053 462.677 328.09L461.425 328.801C461.375 328.825 461.375 328.887 461.437 328.911L462.889 329.733ZM466.971 327.428C467.034 327.465 467.121 327.465 467.171 327.428L468.423 326.717C468.473 326.692 468.473 326.631 468.411 326.606L466.958 325.785C466.896 325.748 466.808 325.748 466.758 325.785L465.506 326.496C465.456 326.521 465.456 326.582 465.519 326.606L466.971 327.428ZM459.209 331.817C459.271 331.854 459.359 331.854 459.409 331.817L460.661 331.106C460.711 331.081 460.711 331.02 460.648 330.996L459.196 330.174C459.133 330.137 459.046 330.137 458.996 330.174L457.744 330.885C457.694 330.91 457.694 330.971 457.756 330.996L459.209 331.817ZM461.049 330.775C461.112 330.812 461.199 330.812 461.249 330.775L462.501 330.064C462.551 330.039 462.551 329.978 462.489 329.953L461.036 329.132C460.974 329.095 460.886 329.095 460.836 329.132L459.584 329.843C459.534 329.868 459.534 329.929 459.597 329.953L461.049 330.775ZM470.502 324.829C470.564 324.866 470.652 324.866 470.702 324.829L471.954 324.118C472.004 324.093 472.004 324.032 471.941 324.007L471.553 323.787C471.491 323.75 471.403 323.75 471.353 323.787L470.101 324.498C470.051 324.522 470.051 324.584 470.113 324.608L470.502 324.829ZM476.01 321.715C476.073 321.751 476.161 321.751 476.211 321.715L477.463 321.004C477.513 320.979 477.513 320.918 477.45 320.893L477.062 320.673C476.999 320.636 476.912 320.636 476.862 320.673L475.61 321.384C475.56 321.408 475.56 321.469 475.622 321.494L476.01 321.715ZM479.065 323.443C479.128 323.48 479.216 323.48 479.266 323.443L480.518 322.732C480.568 322.708 480.568 322.646 480.505 322.622L479.053 321.801C478.99 321.764 478.903 321.764 478.852 321.801L477.6 322.512C477.55 322.536 477.55 322.597 477.613 322.622L479.065 323.443ZM483.66 328.004L484.912 327.293C484.962 327.268 484.962 327.207 484.9 327.183L483.447 326.361C483.385 326.324 483.297 326.324 483.247 326.361L481.995 327.072C481.945 327.097 481.945 327.158 482.007 327.183L483.46 328.004C483.51 328.041 483.61 328.041 483.66 328.004ZM472.33 323.787C472.392 323.823 472.48 323.823 472.53 323.787L473.782 323.076C473.832 323.051 473.832 322.99 473.769 322.965L473.381 322.745C473.319 322.708 473.231 322.708 473.181 322.745L471.929 323.456C471.879 323.48 471.879 323.541 471.941 323.566L472.33 323.787ZM457.368 332.859C457.431 332.896 457.518 332.896 457.568 332.859L458.82 332.148C458.871 332.123 458.871 332.062 458.808 332.038L457.356 331.216C457.293 331.179 457.205 331.179 457.155 331.216L455.903 331.927C455.853 331.952 455.853 332.013 455.916 332.038L457.368 332.859Z" fill="#27DEBF"/>
<path d="M456.479 321.702L441.455 330.199L441.38 330.162L435.709 326.95C434.732 326.398 434.106 325.062 434.319 323.983L436.447 313.194L448.967 303.276L451.471 304.698L449.355 315.487C449.142 316.565 449.756 317.902 450.733 318.454L456.479 321.702Z" fill="#455A64"/>
<path d="M441.455 330.199V333.031L433.605 328.593C432.128 327.771 431.189 325.748 431.514 324.118L433.931 311.784L436.447 313.194L434.319 323.983C434.106 325.062 434.732 326.398 435.709 326.95L441.38 330.162L441.455 330.199Z" fill="#263238"/>
<path d="M456.479 321.702L441.455 330.199V333.031L456.479 324.534V321.702Z" fill="#37474F"/>
<path d="M470.276 250.129C470.965 250.521 471.528 251.514 471.528 252.348V297.513C471.528 298.347 470.927 299.365 470.189 299.782L412.697 332.283C411.958 332.7 410.794 332.724 410.105 332.332C409.417 331.939 408.853 330.946 408.853 330.113V284.947C408.853 284.113 409.454 283.096 410.193 282.679L467.685 250.178C468.423 249.761 469.588 249.736 470.276 250.129Z" fill="#455A64"/>
<path d="M412.709 332.283C411.971 332.7 410.806 332.724 410.118 332.332C409.429 331.939 408.866 330.946 408.866 330.113V284.947C408.866 284.53 409.016 284.064 409.254 283.66L453.975 308.952L412.709 332.283Z" fill="#263238"/>
<path d="M471.528 297.513V252.348C471.528 251.514 470.927 251.171 470.189 251.587L412.709 284.089C411.971 284.506 411.37 285.523 411.37 286.357V331.523C411.37 332.356 411.971 332.7 412.709 332.283L470.201 299.782C470.927 299.365 471.528 298.347 471.528 297.513Z" fill="#37474F"/>
<path d="M468.261 254.113L413.698 284.947C413.11 285.278 412.634 286.087 412.634 286.761V326.852C412.634 327.514 413.11 327.796 413.698 327.452L468.261 296.618C468.849 296.287 469.325 295.478 469.325 294.804V254.702C469.325 254.052 468.849 253.782 468.261 254.113Z" fill="white"/>
<path d="M391.976 400.399L359.612 382.12C358.711 381.617 357.984 380.379 357.984 379.361V360.039C357.984 359.022 358.711 357.784 359.612 357.281L381.797 344.751C382.699 344.249 384.151 344.249 385.053 344.751L417.392 363.031C418.293 363.534 419.019 364.772 419.019 365.789L419.032 385.111C419.032 386.129 418.306 387.367 417.404 387.87L395.231 400.399C394.33 400.902 392.878 400.902 391.976 400.399Z" fill="#263238"/>
<path d="M395.219 377.4L417.379 364.858C418.281 364.355 418.281 363.521 417.379 363.019L385.04 344.739C384.139 344.236 382.686 344.236 381.785 344.739L359.599 357.269C358.698 357.771 358.698 358.605 359.599 359.108L391.951 377.4C392.865 377.902 394.317 377.902 395.219 377.4Z" fill="#455A64"/>
<path d="M393.604 377.78V400.779C393.015 400.779 392.427 400.645 391.976 400.399L359.624 382.12C358.723 381.605 357.997 380.379 357.997 379.361L357.984 360.027C357.984 359.181 358.523 358.188 359.224 357.587C358.773 358.078 358.886 358.703 359.612 359.108L391.976 377.4C392.427 377.645 393.003 377.78 393.604 377.78Z" fill="#37474F"/>
<path d="M367.712 358.433C368.288 358.102 369.252 358.102 369.853 358.446L393.115 371.601C393.716 371.944 393.729 372.483 393.153 372.814C392.577 373.145 391.613 373.145 391.012 372.802L367.75 359.647C367.149 359.316 367.137 358.777 367.712 358.433Z" fill="#37474F"/>
<path d="M367.712 358.433C368.288 358.102 369.252 358.102 369.853 358.446L384.013 366.451L381.91 367.665L367.75 359.659C367.149 359.316 367.137 358.777 367.712 358.433Z" fill="#27DEBF"/>
<path d="M371.744 356.153C372.32 355.822 373.284 355.822 373.885 356.165L397.147 369.32C397.748 369.664 397.76 370.203 397.184 370.534C396.609 370.865 395.645 370.865 395.044 370.522L371.781 357.367C371.18 357.036 371.168 356.496 371.744 356.153Z" fill="#37474F"/>
<path d="M371.744 356.153C372.32 355.822 373.284 355.822 373.885 356.153L375.788 357.22L373.684 358.433L371.794 357.367C371.18 357.036 371.168 356.496 371.744 356.153Z" fill="#27DEBF"/>
<path d="M375.788 353.873C376.364 353.542 377.328 353.542 377.929 353.885L401.191 367.04C401.792 367.383 401.804 367.923 401.228 368.254C400.653 368.585 399.688 368.585 399.088 368.241L375.825 355.086C375.212 354.755 375.199 354.216 375.788 353.873Z" fill="#37474F"/>
<path d="M375.788 353.873C376.364 353.542 377.328 353.542 377.929 353.885L386.154 358.531L384.051 359.745L375.825 355.099C375.212 354.755 375.199 354.216 375.788 353.873Z" fill="#27DEBF"/>
<path d="M379.819 351.592C380.395 351.261 381.359 351.261 381.96 351.605L405.222 364.76C405.823 365.103 405.836 365.642 405.26 365.973C404.684 366.304 403.72 366.304 403.119 365.961L379.857 352.806C379.256 352.475 379.231 351.936 379.819 351.592Z" fill="#37474F"/>
<path d="M379.819 351.592C380.395 351.261 381.359 351.261 381.96 351.605L398.624 361.02L396.521 362.234L379.869 352.818C379.256 352.475 379.231 351.936 379.819 351.592Z" fill="#27DEBF"/>
<path d="M383.851 349.312C384.427 348.981 385.391 348.981 385.992 349.324L409.254 362.479C409.855 362.822 409.867 363.362 409.291 363.693C408.715 364.024 407.751 364.024 407.15 363.681L383.888 350.526C383.287 350.195 383.275 349.643 383.851 349.312Z" fill="#37474F"/>
<path d="M383.851 349.312C384.427 348.981 385.391 348.981 385.992 349.324L406.938 361.167L404.834 362.381L383.888 350.538C383.287 350.195 383.275 349.643 383.851 349.312Z" fill="#27DEBF"/>
<path d="M396.133 394.11V390.199C396.133 389.181 396.696 388.041 397.41 387.637C398.111 387.244 398.687 387.747 398.687 388.752V392.663C398.687 393.681 398.123 394.821 397.41 395.226C396.709 395.618 396.133 395.115 396.133 394.11Z" fill="#37474F"/>
<path d="M397.472 388.225C397.009 388.483 396.634 389.132 396.634 389.66C396.634 390.187 397.009 390.395 397.472 390.138C397.936 389.88 398.311 389.231 398.311 388.703C398.311 388.176 397.936 387.956 397.472 388.225Z" fill="#27DEBF"/>
<path d="M400.152 391.854V387.943C400.152 386.926 400.715 385.785 401.429 385.381C402.13 384.989 402.706 385.491 402.706 386.497V390.407C402.706 391.425 402.142 392.565 401.429 392.97C400.715 393.362 400.152 392.859 400.152 391.854Z" fill="#37474F"/>
<path d="M401.416 390.481C400.953 390.739 400.577 391.388 400.577 391.915C400.577 392.443 400.953 392.651 401.416 392.394C401.879 392.136 402.255 391.486 402.255 390.959C402.268 390.42 401.879 390.211 401.416 390.481Z" fill="#27DEBF"/>
<path d="M475.096 440.22C475.572 440.833 475.66 442.267 476.148 444.204C476.636 446.141 476.799 447.637 476.474 448.581C476.148 449.525 474.032 451.658 471.428 452.443C468.824 453.228 465.619 452.566 462.526 450.751C459.434 448.937 457.093 446.73 452.673 445.504C448.254 444.278 446.05 443.273 443.959 441.63C441.518 439.705 439.94 436.824 444.61 435.598C449.33 434.359 457.781 436.272 467.046 436.664L475.096 440.22Z" fill="#263238"/>
<path d="M475.096 434.556V441.348C475.096 441.348 474.145 443.604 470.189 443.751C467.772 443.837 466.019 442.758 464.943 441.286V434.556H475.096Z" fill="#FFA8A7"/>
<path d="M461.85 390.113C461.8 398.56 464.279 437.523 464.279 437.523C464.279 437.523 467.81 441.899 475.472 437.523L478.076 394.282L461.85 390.113Z" fill="#37474F"/>
<path d="M454.276 453.497C454.751 454.11 454.839 455.545 455.327 457.482C455.816 459.419 455.978 460.915 455.653 461.859C455.327 462.803 453.211 464.936 450.607 465.721C448.003 466.505 444.798 465.843 441.706 464.029C438.613 462.214 436.272 460.007 431.852 458.781C427.445 457.555 425.229 456.55 423.138 454.907C420.697 452.982 419.12 450.101 423.789 448.875C428.51 447.637 436.961 449.55 446.225 449.942L454.276 453.497Z" fill="#263238"/>
<path d="M454.276 447.833V454.625C454.276 454.625 453.324 456.881 449.368 457.028C446.951 457.114 445.199 456.035 444.122 454.564V447.833H454.276Z" fill="#FFA8A7"/>
<path d="M441.03 403.403C440.979 411.85 443.458 450.812 443.458 450.812C443.458 450.812 446.989 455.189 454.651 450.812L457.255 407.571L441.03 403.403Z" fill="#37474F"/>
<path d="M467.86 483.583C467.86 483.927 467.897 484.245 467.96 484.527C468.11 485.128 468.423 485.582 468.836 485.852L468.861 485.876C469.538 486.305 470.502 486.268 471.553 485.668C473.594 484.515 475.247 481.708 475.247 479.403C475.247 478.287 474.846 477.502 474.208 477.11L474.22 477.098L474.045 477H474.032C473.582 476.804 473.056 476.779 472.455 476.939C472.167 477.024 471.866 477.147 471.553 477.331C469.513 478.483 467.86 481.279 467.86 483.583Z" fill="#455A64"/>
<path d="M468.874 475.811C469.462 475.48 470.013 475.32 470.514 475.32C470.902 475.32 471.253 475.418 471.553 475.602L471.641 475.651L474.02 477C473.569 476.804 473.043 476.779 472.442 476.939C472.154 477.024 471.854 477.147 471.541 477.331C469.5 478.483 467.847 481.291 467.847 483.596C467.847 483.939 467.885 484.258 467.948 484.54C468.098 485.14 468.411 485.594 468.824 485.864L466.383 484.478L466.345 484.454L466.132 484.331C466.107 484.319 466.095 484.307 466.07 484.295C465.506 483.89 465.168 483.118 465.168 482.075C465.181 479.771 466.833 476.963 468.874 475.811Z" fill="#263238"/>
<path d="M507.849 462.533C507.849 462.876 507.886 463.195 507.949 463.477C508.099 464.078 508.412 464.531 508.825 464.801L508.85 464.826C509.526 465.255 510.49 465.218 511.542 464.617C513.583 463.465 515.236 460.657 515.236 458.352C515.236 457.237 514.835 456.452 514.196 456.06L514.209 456.048L514.034 455.949H514.021C513.57 455.753 513.045 455.729 512.444 455.888C512.156 455.974 511.855 456.097 511.542 456.28C509.501 457.421 507.849 460.228 507.849 462.533Z" fill="#455A64"/>
<path d="M508.863 454.748C509.451 454.417 510.002 454.258 510.503 454.258C510.891 454.258 511.242 454.356 511.542 454.54L511.63 454.589L514.009 455.937C513.558 455.741 513.032 455.716 512.431 455.876C512.143 455.962 511.843 456.084 511.53 456.268C509.489 457.421 507.836 460.228 507.836 462.533C507.836 462.876 507.874 463.195 507.936 463.477C508.087 464.078 508.4 464.531 508.813 464.801L506.371 463.416L506.334 463.391L506.121 463.269C506.096 463.256 506.083 463.244 506.058 463.232C505.495 462.827 505.157 462.055 505.157 461.013C505.157 458.708 506.822 455.9 508.863 454.748Z" fill="#263238"/>
<path d="M500.712 491.81C500.712 492.153 500.675 492.472 500.612 492.754C500.462 493.355 500.149 493.808 499.736 494.078L499.711 494.103C499.035 494.532 498.071 494.495 497.019 493.894C494.978 492.742 493.326 489.934 493.326 487.629C493.326 486.514 493.726 485.729 494.365 485.337L494.352 485.324L494.527 485.226H494.54C494.991 485.03 495.517 485.006 496.118 485.165C496.406 485.251 496.706 485.373 497.019 485.557C499.06 486.697 500.712 489.505 500.712 491.81Z" fill="#455A64"/>
<path d="M499.711 484.025C499.122 483.694 498.571 483.534 498.071 483.534C497.683 483.534 497.332 483.632 497.031 483.816L496.944 483.865L494.565 485.214C495.016 485.018 495.542 484.993 496.143 485.153C496.43 485.239 496.731 485.361 497.044 485.545C499.085 486.697 500.737 489.505 500.737 491.81C500.737 492.153 500.7 492.472 500.637 492.754C500.487 493.355 500.174 493.808 499.761 494.078L502.202 492.693L502.24 492.668L502.453 492.546C502.478 492.533 502.49 492.521 502.515 492.509C503.079 492.104 503.417 491.332 503.417 490.29C503.404 487.985 501.752 485.177 499.711 484.025Z" fill="#263238"/>
<path d="M526.679 479.354C526.679 479.697 526.641 480.016 526.579 480.298C526.428 480.899 526.115 481.352 525.702 481.622L525.677 481.646C525.001 482.075 524.037 482.039 522.985 481.438C520.945 480.286 519.292 477.478 519.292 475.173C519.292 474.057 519.693 473.273 520.331 472.88L520.319 472.868L520.494 472.77H520.506C520.957 472.574 521.483 472.549 522.084 472.709C522.372 472.795 522.672 472.917 522.985 473.101C525.014 474.254 526.679 477.049 526.679 479.354Z" fill="#455A64"/>
<path d="M525.665 471.581C525.076 471.25 524.525 471.09 524.025 471.09C523.636 471.09 523.286 471.189 522.985 471.372L522.898 471.421L520.519 472.77C520.97 472.574 521.496 472.549 522.097 472.709C522.384 472.795 522.685 472.917 522.998 473.101C525.039 474.254 526.691 477.061 526.691 479.366C526.691 479.709 526.654 480.028 526.591 480.31C526.441 480.911 526.128 481.364 525.715 481.634L528.156 480.249L528.194 480.224L528.407 480.102C528.432 480.089 528.444 480.077 528.469 480.065C529.033 479.66 529.371 478.888 529.371 477.846C529.358 475.541 527.705 472.733 525.665 471.581Z" fill="#263238"/>
<path d="M476.499 464.09C476.499 464.433 476.461 464.752 476.399 465.034C476.248 465.635 475.935 466.088 475.522 466.358L475.497 466.383C474.821 466.812 473.857 466.775 472.805 466.174C470.765 465.022 469.112 462.214 469.112 459.909C469.112 458.794 469.512 458.009 470.151 457.617L470.139 457.604L470.314 457.506H470.326C470.777 457.31 471.303 457.286 471.904 457.445C472.192 457.531 472.492 457.654 472.805 457.837C474.846 458.978 476.499 461.785 476.499 464.09Z" fill="#455A64"/>
<path d="M475.485 456.305C474.896 455.974 474.345 455.815 473.844 455.815C473.456 455.815 473.106 455.913 472.805 456.097L472.718 456.146L470.339 457.494C470.79 457.298 471.315 457.273 471.916 457.433C472.204 457.519 472.505 457.641 472.818 457.825C474.859 458.978 476.511 461.785 476.511 464.09C476.511 464.433 476.474 464.752 476.411 465.034C476.261 465.635 475.948 466.088 475.535 466.358L477.976 464.973L478.014 464.948L478.226 464.826C478.251 464.813 478.264 464.801 478.289 464.789C478.852 464.384 479.19 463.612 479.19 462.57C479.19 460.265 477.525 457.457 475.485 456.305Z" fill="#263238"/>
<path d="M498.559 456.44L511.768 452.737V455.496L498.559 462.95V456.44Z" fill="#F5F5F5"/>
<path d="M498.559 456.44L497.257 455.655L510.503 452.112L511.768 452.737L498.559 456.44Z" fill="#FAFAFA"/>
<path d="M492.85 464.678L474.145 457.813V455.018L492.85 456.648V464.678Z" fill="#F5F5F5"/>
<path d="M474.145 455.018L475.522 454.662L493.964 455.827L492.85 456.648L474.145 455.018Z" fill="#FAFAFA"/>
<path d="M492.349 463.796C492.349 465.868 498.859 465.868 498.859 463.796V445.676H492.349V463.796Z" fill="#FAFAFA"/>
<path d="M497.232 459.076L500.813 481.83H498.371L495.028 459.076C495.855 459.309 496.568 459.247 497.232 459.076Z" fill="#FAFAFA"/>
<path d="M495.016 459.076V465.328L498.359 485.68V481.83L495.016 459.076Z" fill="#F5F5F5"/>
<path d="M500.8 481.83H498.359V485.68H500.8V481.83Z" fill="#EBEBEB"/>
<path d="M493.901 465.144L469.775 477.527V473.714L493.901 459.1V465.144Z" fill="#F5F5F5"/>
<path d="M493.901 459.1C493.326 459.014 492.787 458.831 492.349 458.414L468.261 472.721L469.763 473.714L493.901 459.1Z" fill="#FAFAFA"/>
<path d="M469.775 477.527V473.714L468.273 472.721V476.411L469.775 477.527Z" fill="#EBEBEB"/>
<path d="M524.325 473.15L498.546 464.507V458.843L524.325 469.337V473.15Z" fill="#F5F5F5"/>
<path d="M498.546 458.843C498.759 458.781 498.847 458.426 498.859 457.862L525.076 469.031L524.313 469.337L498.546 458.843Z" fill="#FAFAFA"/>
<path d="M525.076 469.031V472.721L524.325 473.15V469.337L525.076 469.031Z" fill="#EBEBEB"/>
<path d="M501.113 414.106H490.095V451.475C490.095 454.576 501.113 454.576 501.113 451.475V414.106Z" fill="#F0F0F0"/>
<path d="M453.174 417.465C453.174 415.54 454.226 413.763 455.928 412.794L494.49 390.996C496.193 390.027 498.296 390.027 499.999 390.996L538.548 412.794C540.25 413.763 541.302 415.54 541.302 417.465L497.244 442.378L453.174 417.465Z" fill="#27DEBF"/>
<path d="M453.174 417.465V420.579L494.515 443.947C495.354 444.425 496.293 444.658 497.232 444.658C498.183 444.658 499.122 444.425 499.961 443.947L541.302 420.579V417.465L499.961 440.833C499.122 441.311 498.183 441.556 497.232 441.556C496.293 441.556 495.354 441.311 494.515 440.833L453.174 417.465Z" fill="#FAFAFA"/>
<path d="M453.174 417.465V420.579L494.515 443.947C495.354 444.425 496.293 444.658 497.232 444.658V441.544C496.293 441.544 495.354 441.299 494.515 440.821L453.174 417.465Z" fill="#F5F5F5"/>
<path opacity="0.1" d="M453.174 417.465C453.174 416.619 453.387 415.798 453.762 415.062L495.416 438.614C496.543 439.251 497.92 439.251 499.047 438.614L540.714 415.075C541.089 415.81 541.302 416.619 541.302 417.465L497.244 442.378L453.174 417.465Z" fill="black"/>
<path d="M527.956 400.461C527.956 400.461 492.186 389.893 485.976 388.225C479.754 386.558 467.835 383.75 464.342 385.283C460.849 386.815 459.083 388.581 458.77 393.509C458.708 394.429 458.77 398.94 458.77 398.94C458.77 398.94 476.06 404.175 490.221 404.175C504.381 404.188 527.956 400.461 527.956 400.461Z" fill="#263238"/>
<path d="M497.382 340.938L499.761 353.505L512.907 354.988L511.016 337.653L497.382 340.938Z" fill="#FFA8A7"/>
<path d="M485.112 330.922C485.112 330.922 483.385 336.096 483.911 336.414C484.436 336.733 486.79 336.574 486.79 336.574L485.112 330.922Z" fill="#F28F8F"/>
<path d="M488.505 314.322C486.239 316.651 484.086 320.562 485.037 330.456C486.077 341.294 489.382 344.187 490.784 344.825C492.862 345.781 499.961 344.114 502.265 342.446C505.144 340.362 510.578 335.176 511.993 328.789C513.658 321.273 511.53 312.74 505.921 311.012C498.021 308.584 490.421 312.348 488.505 314.322Z" fill="#FFA8A7"/>
<path d="M483.335 319.655C484.674 322.144 487.216 328.311 494.415 330.064C494.415 330.064 494.815 325.859 498.371 325.81C501.952 325.773 503.154 330.064 501.376 333.067C499.611 336.071 497.382 335.372 497.382 335.372C497.382 335.372 497.745 341.282 502.102 343.39C502.102 343.39 507.335 345.72 512.106 342.741C514.259 341.392 516.738 335.581 518.015 330.91C520.732 321.028 520.244 313.451 513.821 311.919C512.469 307.775 510.303 306.439 506.259 306.181C497.57 305.617 491.948 311.919 484.724 311.919C480.968 311.931 481.795 316.811 483.335 319.655Z" fill="#263238"/>
<path d="M513.683 312.63L518.04 310.803C517.527 309.626 516.137 309.087 514.935 309.59C513.721 310.092 513.157 311.453 513.683 312.63Z" fill="#263238"/>
<path d="M527.868 396.255C527.856 402.986 528.519 409.987 525.652 414.915C522.885 419.684 509.814 429.995 495.191 427.58C485.638 426.01 454.789 414.486 454.789 414.486C454.789 414.486 441.13 409.545 441.067 406.027C441.055 405.168 440.967 404.273 441.03 403.342C441.318 398.658 443.246 393.62 453.249 393.877C464.166 394.159 496.556 399.357 496.556 399.357L527.868 396.255Z" fill="#37474F"/>
<path d="M525.327 352.769C524.15 349.251 519.593 345.426 515.035 346.259C506.672 347.779 497.507 350.44 495.078 351.139C495.078 351.139 496.168 369.198 486.702 374.666L485.45 397.665C485.45 397.665 487.792 402.251 491.41 404.494C495.316 406.934 500.762 410.575 510.591 409.778C522.259 408.834 527.956 400.473 527.956 400.473C527.956 400.473 527.856 378.748 527.48 369.014C527.155 360.751 526.14 355.184 525.327 352.769Z" fill="#455A64"/>
<path d="M486.465 379.116C486.465 379.116 491.41 374.089 493.15 368.266C493.15 368.266 493.15 376.799 486.364 381.396L486.465 379.116Z" fill="#37474F"/>
<path d="M495.078 351.139C489.908 352.659 486.765 352.929 481.056 361.535C475.347 370.129 462.839 387.195 461.612 389.243C459.885 392.099 459.146 395.483 460.636 398.107C462.026 400.546 466.07 399.48 471.729 394.613C477.2 389.905 488.055 376.59 488.055 376.59C488.055 376.59 493.714 364.453 495.078 351.139Z" fill="#FFA8A7"/>
<path d="M495.078 351.139C495.078 351.139 490.471 352.083 487.616 353.456C486.74 353.873 483.835 354.964 481.97 357.992C477.976 364.49 472.267 373.734 472.267 373.734C472.267 373.734 471.29 381.789 481.281 384.596L486.59 378.981C488.756 376.688 490.559 374.102 491.886 371.257C494.139 366.427 496.706 358.74 495.078 351.139Z" fill="#455A64"/>
<path d="M462.376 399.296C457.593 398.732 446.889 384.363 443.321 379.79C439.752 375.217 436.76 372.508 433.543 370.779C430.325 369.05 427.533 366.317 426.657 360.812C425.843 355.687 430.713 352.414 434.707 357.575C437.236 360.849 439.79 362.908 439.928 362.369C440.065 361.817 439.139 359.549 439.164 357.171C439.189 354.314 441.23 356.19 441.843 357.195C442.457 358.2 443.17 359.819 443.997 361.915C445.011 364.465 444.598 367.052 445.837 368.805C447.077 370.546 463.728 386.165 463.728 386.165L462.376 399.296Z" fill="#FFA8A7"/>
<path d="M543.431 355.172V403.391L504.343 425.569V377.375L543.431 355.172Z" fill="#27DEBF"/>
<path opacity="0.1" d="M543.431 355.172V403.391L504.343 425.569V377.375L543.431 355.172Z" fill="black"/>
<path d="M500.787 423.559L504.343 425.569C504.343 425.569 504.343 387.551 504.343 381.372C504.343 379.275 504.994 378.233 505.846 377.78C508.825 375.977 512.769 379.803 512.769 379.803L512.782 376.59L550.542 355.172C546.986 353.162 544.658 351.85 537.484 355.834C530.31 359.819 509.276 371.735 505.946 373.746C503.279 375.352 500.787 377.24 500.787 381.617C500.787 389.181 500.787 423.559 500.787 423.559Z" fill="#27DEBF"/>
<path opacity="0.4" d="M505.946 373.734C509.226 371.65 530.322 359.806 537.484 355.822C544.658 351.837 546.986 353.162 550.542 355.16L512.782 376.578C511.492 375.205 508.925 373.697 505.946 373.734Z" fill="white"/>
<path d="M512.757 379.79L550.542 358.298V355.172L512.769 376.578L512.757 379.79Z" fill="#27DEBF"/>
<path opacity="0.2" d="M512.757 379.79L550.542 358.298V355.172L512.769 376.578L512.757 379.79Z" fill="black"/>
<path d="M513.332 440.906C513.921 440.906 514.509 440.759 515.048 440.453C516.124 439.852 516.763 438.761 516.763 437.547V412.255C516.763 411.311 515.974 410.538 515.01 410.538C514.046 410.538 513.257 411.311 513.257 412.255V437.412L510.478 435.843C509.639 435.365 508.575 435.647 508.087 436.468C507.598 437.29 507.886 438.332 508.725 438.81L511.63 440.453C512.156 440.759 512.744 440.906 513.332 440.906Z" fill="#E6E6E6"/>
<path d="M534.704 428.72C535.293 428.72 535.881 428.573 536.419 428.266C537.484 427.666 538.135 426.574 538.135 425.361V400.068C538.135 399.124 537.346 398.352 536.382 398.352C535.418 398.352 534.629 399.124 534.629 400.068V425.226L531.85 423.657C531.011 423.178 529.947 423.46 529.458 424.282C528.97 425.103 529.258 426.145 530.097 426.623L533.001 428.266C533.527 428.561 534.116 428.72 534.704 428.72Z" fill="#E6E6E6"/>
</svg>
