<svg width="1440" height="149" viewBox="0 0 1440 149" fill="none" xmlns="http://www.w3.org/2000/svg">
<path d="M0 78.6438L20 64.3438C40 49.9438 80 21.3438 120 28.1438C160 34.9438 200 77.3438 240 77.8438C280 78.3438 320 36.9438 360 24.4438C400 11.9437 440 28.3438 480 42.4438C520 56.6438 560 68.6438 600 69.6438C640 70.6438 680 60.6438 720 65.4438C760 70.3438 800 89.9438 840 94.9438C880 99.9438 920 90.3438 960 74.4438C1000 58.6438 1040 36.6438 1080 27.1438C1120 17.6438 1160 20.6438 1200 36.9438C1240 53.3438 1280 82.9438 1320 100.444C1360 117.944 1400 123.344 1420 125.944L1440 128.644" stroke="white" stroke-width="40" stroke-linecap="round"/>
</svg>
