<svg id="visual" viewBox="0 0 900 600" width="900" height="600" xmlns="http://www.w3.org/2000/svg" xmlns:xlink="http://www.w3.org/1999/xlink" version="1.1"><rect width="900" height="600" fill="#0e0e0e"></rect><g><g transform="translate(783 420)"><path d="M0 -94.6L81.9 -47.3L81.9 47.3L0 94.6L-81.9 47.3L-81.9 -47.3Z" fill="none" stroke="#297EA6" stroke-width="2"></path></g><g transform="translate(325 135)"><path d="M0 -48L41.6 -24L41.6 24L0 48L-41.6 24L-41.6 -24Z" fill="none" stroke="#297EA6" stroke-width="2"></path></g><g transform="translate(889 596)"><path d="M0 -92L79.7 -46L79.7 46L0 92L-79.7 46L-79.7 -46Z" fill="none" stroke="#297EA6" stroke-width="2"></path></g><g transform="translate(346 561)"><path d="M0 -60L52 -30L52 30L0 60L-52 30L-52 -30Z" fill="none" stroke="#297EA6" stroke-width="2"></path></g><g transform="translate(420 336)"><path d="M0 -23L19.9 -11.5L19.9 11.5L0 23L-19.9 11.5L-19.9 -11.5Z" fill="none" stroke="#297EA6" stroke-width="2"></path></g><g transform="translate(41 82)"><path d="M0 -71L61.5 -35.5L61.5 35.5L0 71L-61.5 35.5L-61.5 -35.5Z" fill="none" stroke="#297EA6" stroke-width="2"></path></g><g transform="translate(679 181)"><path d="M0 -71L61.5 -35.5L61.5 35.5L0 71L-61.5 35.5L-61.5 -35.5Z" fill="none" stroke="#297EA6" stroke-width="2"></path></g><g transform="translate(850 27)"><path d="M0 -20L17.3 -10L17.3 10L0 20L-17.3 10L-17.3 -10Z" fill="none" stroke="#297EA6" stroke-width="2"></path></g><g transform="translate(143 558)"><path d="M0 -57L49.4 -28.5L49.4 28.5L0 57L-49.4 28.5L-49.4 -28.5Z" fill="none" stroke="#297EA6" stroke-width="2"></path></g><g transform="translate(183 275)"><path d="M0 -32L27.7 -16L27.7 16L0 32L-27.7 16L-27.7 -16Z" fill="none" stroke="#297EA6" stroke-width="2"></path></g><g transform="translate(571 465)"><path d="M0 -59L51.1 -29.5L51.1 29.5L0 59L-51.1 29.5L-51.1 -29.5Z" fill="none" stroke="#297EA6" stroke-width="2"></path></g><g transform="translate(503 31)"><path d="M0 -60L52 -30L52 30L0 60L-52 30L-52 -30Z" fill="none" stroke="#297EA6" stroke-width="2"></path></g><g transform="translate(32 389)"><path d="M0 -85L73.6 -42.5L73.6 42.5L0 85L-73.6 42.5L-73.6 -42.5Z" fill="none" stroke="#297EA6" stroke-width="2"></path></g><g transform="translate(890 255)"><path d="M0 -79L68.4 -39.5L68.4 39.5L0 79L-68.4 39.5L-68.4 -39.5Z" fill="none" stroke="#297EA6" stroke-width="2"></path></g></g></svg>