<svg id="visual" viewBox="0 0 900 100" width="900" height="100" xmlns="http://www.w3.org/2000/svg" xmlns:xlink="http://www.w3.org/1999/xlink" version="1.1"><path d="M0 71L12.5 68.8C25 66.7 50 62.3 75 66.3C100 70.3 125 82.7 150 82.3C175 82 200 69 225 63.8C250 58.7 275 61.3 300 65.8C325 70.3 350 76.7 375 79C400 81.3 425 79.7 450 78.2C475 76.7 500 75.3 525 76.3C550 77.3 575 80.7 600 77.5C625 74.3 650 64.7 675 64.3C700 64 725 73 750 75.7C775 78.3 800 74.7 825 69.8C850 65 875 59 887.5 56L900 53L900 101L887.5 101C875 101 850 101 825 101C800 101 775 101 750 101C725 101 700 101 675 101C650 101 625 101 600 101C575 101 550 101 525 101C500 101 475 101 450 101C425 101 400 101 375 101C350 101 325 101 300 101C275 101 250 101 225 101C200 101 175 101 150 101C125 101 100 101 75 101C50 101 25 101 12.5 101L0 101Z" fill="#d79a00" stroke-linecap="round" stroke-linejoin="miter"></path></svg>